<?xml version="1.0" encoding="UTF-8"?>
<!DOCTYPE svg PUBLIC "-//W3C//DTD SVG 1.1//EN" "http://www.w3.org/Graphics/SVG/1.1/DTD/svg11.dtd">
<!-- Creator: CorelDRAW X8 -->
<svg xmlns="http://www.w3.org/2000/svg" xml:space="preserve" width="3.41634in" height="3.41634in" version="1.1" style="shape-rendering:geometricPrecision; text-rendering:geometricPrecision; image-rendering:optimizeQuality; fill-rule:evenodd; clip-rule:evenodd"
viewBox="0 0 1422 1422"
 xmlns:xlink="http://www.w3.org/1999/xlink">
 <defs>
  <style type="text/css">
   <![CDATA[
    .str0 {stroke:#0F62AC;stroke-width:1.2488}
    .fil1 {fill:#E5AD36}
    .fil2 {fill:#0F62AC;fill-rule:nonzero}
    .fil0 {fill:white;fill-rule:nonzero}
   ]]>
  </style>
 </defs>
 <g id="Layer_x0020_1">
  <metadata id="CorelCorpID_0Corel-Layer"/>
  <g id="_1339655776">
   <path class="fil0 str0" d="M293 1l836 0c161,0 292,131 292,292l0 836c0,161 -131,292 -292,292l-836 0c-161,0 -292,-131 -292,-292l0 -836c0,-161 131,-292 292,-292z"/>
   <g>
    <path class="fil1" d="M711 254c190,0 343,154 343,344 0,183 -142,332 -323,343l121 -281 69 -160 -160 -68 -255 -110c57,-42 128,-68 205,-68zm-153 651c-113,-56 -190,-173 -190,-307 0,-48 9,-93 27,-135l298 128 -135 314z"/>
    <path class="fil2" d="M272 1131c5,0 10,-1 15,-2l0 -95c-6,-1 -11,-2 -15,-2 -6,0 -11,1 -15,2l0 95c5,1 10,2 15,2zm77 -101c-5,0 -11,1 -17,2 -7,1 -13,3 -18,6 -6,3 -10,6 -13,8l0 83c5,1 10,2 15,2 5,0 10,-1 15,-2l0 -67c3,-2 6,-3 9,-4 3,0 6,0 7,0 4,0 7,0 10,2 3,2 5,4 6,7 2,3 2,6 2,9l0 53c5,1 10,2 15,2 5,0 10,-1 15,-2l0 -58c0,-6 -1,-11 -3,-16 -1,-5 -4,-9 -8,-13 -4,-4 -9,-7 -15,-9 -5,-2 -12,-3 -20,-3zm133 3c-4,0 -8,0 -12,1 -5,28 -11,50 -17,66l-1 4 -2 -4c-3,-9 -7,-20 -10,-33 -3,-12 -6,-24 -8,-33 -3,-1 -7,-1 -11,-1 -3,0 -7,1 -11,1 -5,0 -8,1 -10,1 2,9 4,19 7,30 3,10 7,21 12,32 5,11 10,22 17,32 5,1 10,2 15,2 5,0 10,-1 15,-2 8,-13 15,-27 21,-43 5,-15 10,-32 15,-51 -6,-1 -13,-2 -20,-2zm116 42c0,-6 -1,-12 -3,-18 -3,-5 -6,-10 -10,-14 -4,-4 -9,-7 -14,-9 -6,-2 -12,-3 -19,-3 -7,0 -13,1 -19,4 -6,2 -12,6 -16,10 -5,5 -8,11 -11,17 -2,6 -4,13 -4,20 0,8 2,15 4,22 3,6 6,11 11,16 4,4 10,7 16,9 6,3 13,4 20,4 17,0 31,-5 43,-14 -1,-3 -2,-7 -4,-11 -2,-4 -4,-7 -7,-9 -6,4 -11,6 -16,8 -4,1 -8,2 -12,2 -14,0 -22,-7 -24,-20l64 0c0,-4 1,-9 1,-14zm-65 -3c1,-5 3,-10 6,-13 4,-3 8,-5 14,-5 2,0 5,1 8,2 3,1 5,3 6,6 2,3 2,7 2,10l-36 0zm112 61c13,0 24,-3 32,-9 7,-6 11,-14 11,-24 0,-8 -3,-15 -8,-19 -6,-5 -14,-9 -27,-11 -9,-2 -15,-3 -17,-5 -1,-1 -2,-3 -2,-4 0,-5 4,-7 14,-7 5,0 10,1 15,2 5,1 9,3 13,5 5,-5 9,-12 10,-21 -5,-3 -11,-6 -18,-7 -7,-1 -14,-2 -21,-2 -12,0 -22,3 -30,8 -8,6 -12,14 -12,23 0,6 1,11 4,15 3,4 7,8 11,10 5,2 11,4 17,5 10,2 16,4 18,5 2,2 3,4 3,6 0,2 -1,4 -3,5 -2,2 -5,2 -9,2 -11,0 -22,-3 -32,-9 -3,1 -5,4 -7,8 -3,3 -4,7 -5,12 4,3 10,6 17,8 7,3 16,4 26,4zm119 -32c-4,4 -9,6 -13,6 -5,0 -8,-1 -11,-4 -2,-2 -3,-6 -3,-11l0 -32 33 0c1,-5 2,-9 2,-13 0,-3 -1,-7 -2,-12l-33 0 0 -25c-5,-1 -10,-1 -15,-1 -5,0 -10,0 -15,1l0 25 -16 0c-1,5 -1,9 -1,12 0,4 0,9 1,13l16 0 0 40c0,7 1,13 4,17 3,5 8,9 13,12 6,2 13,3 22,3 11,0 22,-3 31,-10 -1,-4 -2,-8 -5,-12 -2,-4 -5,-7 -8,-9zm56 -70c-4,0 -10,1 -15,2 -6,1 -11,3 -15,5 -5,3 -9,5 -11,7 0,4 2,8 4,11 3,4 5,6 9,8 2,-2 6,-4 11,-6 5,-1 10,-2 15,-2 6,0 11,1 15,4 3,2 4,6 4,10l0 4c-5,-2 -12,-3 -20,-3 -7,0 -14,1 -19,3 -6,1 -10,4 -13,7 -4,2 -6,6 -7,9 -2,4 -2,8 -2,11 0,11 3,18 11,24 7,5 18,8 32,8 17,0 33,-4 48,-10l0 -50c0,-9 -1,-17 -5,-23 -3,-6 -8,-10 -15,-14 -7,-3 -16,-5 -27,-5zm-14 69c0,-3 1,-6 4,-8 2,-1 6,-2 11,-2 6,0 11,0 16,2l0 17c-5,2 -10,3 -14,3 -6,0 -10,-1 -13,-4 -3,-2 -4,-5 -4,-8zm119 -69c-10,0 -18,1 -26,4 -8,3 -15,6 -20,11l0 120c5,1 10,2 15,2 5,0 10,-1 15,-2l0 -35c5,1 10,2 16,2 7,0 14,-1 20,-4 7,-2 12,-5 17,-10 5,-4 9,-10 12,-16 2,-7 4,-14 4,-22 0,-8 -2,-15 -4,-22 -3,-6 -7,-11 -11,-15 -5,-5 -11,-8 -17,-10 -7,-2 -14,-3 -21,-3zm-2 76c-6,0 -11,-1 -14,-3l0 -44c4,-1 9,-2 13,-2 4,0 8,0 12,2 4,1 7,4 9,8 3,4 4,9 4,14 0,6 -1,11 -4,15 -2,4 -5,6 -9,8 -4,1 -8,2 -11,2zm103 -76c-4,0 -9,1 -15,2 -5,1 -11,3 -15,5 -5,3 -9,5 -11,7 1,4 2,8 4,11 3,4 6,6 9,8 3,-2 6,-4 11,-6 5,-1 10,-2 15,-2 7,0 11,1 15,4 3,2 5,6 5,10l0 4c-6,-2 -13,-3 -21,-3 -7,0 -14,1 -19,3 -6,1 -10,4 -13,7 -4,2 -6,6 -7,9 -2,4 -2,8 -2,11 0,11 3,18 11,24 7,5 18,8 32,8 17,0 33,-4 48,-10l0 -50c0,-9 -1,-17 -5,-23 -3,-6 -8,-10 -15,-14 -7,-3 -16,-5 -27,-5zm-14 69c0,-3 1,-6 4,-8 2,-1 6,-2 11,-2 6,0 11,0 17,2l0 17c-6,2 -10,3 -15,3 -5,0 -10,-1 -13,-4 -3,-2 -4,-5 -4,-8zm110 33c14,0 25,-3 32,-9 8,-6 11,-14 11,-24 0,-8 -2,-15 -8,-19 -5,-5 -14,-9 -26,-11 -10,-2 -15,-3 -17,-5 -2,-1 -3,-3 -3,-4 0,-5 5,-7 14,-7 5,0 10,1 15,2 5,1 10,3 13,5 6,-5 9,-12 11,-21 -5,-3 -12,-6 -19,-7 -6,-1 -13,-2 -20,-2 -12,0 -23,3 -30,8 -8,6 -12,14 -12,23 0,6 1,11 4,15 3,4 6,8 11,10 4,2 10,4 17,5 9,2 15,4 17,5 3,2 4,4 4,6 0,2 -1,4 -3,5 -2,2 -6,2 -10,2 -11,0 -21,-3 -31,-9 -3,1 -6,4 -8,8 -2,3 -3,7 -4,12 4,3 9,6 17,8 7,3 15,4 25,4z"/>
   </g>
  </g>
 </g>
</svg>
