<svg width="26" height="26" viewBox="0 0 26 26" fill="none" xmlns="http://www.w3.org/2000/svg">
<path fill-rule="evenodd" clip-rule="evenodd" d="M0.637602 0.185548C0.544145 0.232472 0.417776 0.345559 0.356838 0.43682C0.247609 0.600346 0.245998 0.624419 0.245998 2.10544V3.60818L0.372415 3.75838C0.474222 3.87942 0.536283 3.90862 0.691509 3.90862C0.931794 3.90862 1.10191 3.80076 1.17008 3.60515C1.19908 3.52195 1.22257 3.10364 1.22257 2.67038V1.88615L3.93987 4.59222H4.16151C4.47167 4.59222 4.64056 4.42328 4.64056 4.11302V3.89129L1.83668 1.07657H2.75276C3.75086 1.07657 3.88797 1.04713 3.99627 0.809381C4.07005 0.647466 4.07005 0.529105 3.99627 0.36719C3.88074 0.113673 3.7909 0.100001 2.2382 0.100098C0.973591 0.100147 0.787799 0.110059 0.637602 0.185548ZM21.4413 0.372903C21.3203 0.47471 21.2911 0.536771 21.2911 0.691997C21.2911 0.932282 21.3989 1.1024 21.5946 1.17057C21.6778 1.19957 22.0961 1.22306 22.5293 1.22306H23.3136L20.6075 3.94036V4.16199C20.6075 4.47215 20.7764 4.64105 21.0867 4.64105H21.3084L24.1231 1.83717V2.74856C24.1231 3.73811 24.1498 3.86941 24.3744 3.98553C24.5447 4.07362 24.6782 4.07362 24.8485 3.98553C25.0866 3.86243 25.0997 3.77063 25.0996 2.23395C25.0996 0.641411 25.0875 0.574174 24.7629 0.357327C24.5994 0.248097 24.5753 0.246486 23.0943 0.246486H21.5915L21.4413 0.372903ZM12.2802 2.09972C12.1496 2.15265 3.98519 6.86138 3.75804 7.0148C3.66209 7.0796 3.53025 7.22574 3.46507 7.33951L3.34661 7.54635V17.6538L3.46507 17.8607C3.53025 17.9745 3.66209 18.1207 3.75804 18.1857C3.85403 18.2507 5.81054 19.3867 8.10587 20.7101C12.846 23.4432 12.525 23.2956 13.1012 23.0071C13.2685 22.9234 15.2391 21.7945 17.4805 20.4985C21.1581 18.372 21.5702 18.1215 21.7042 17.9304L21.8526 17.7187V7.4815L21.7042 7.26978C21.5702 7.07872 21.1584 6.82832 17.4805 4.70204C15.2391 3.40623 13.2754 2.2801 13.1167 2.19958C12.8227 2.05036 12.4978 2.01154 12.2802 2.09972ZM8.75764 5.2413C6.65796 6.45537 4.93549 7.47066 4.92992 7.49752C4.92006 7.54513 12.4742 11.5221 12.5793 11.5246C12.6292 11.5258 20.2499 7.59181 20.3257 7.52564C20.3568 7.49854 12.8402 3.12561 12.6484 3.05925C12.6068 3.0448 10.9279 3.98641 8.75764 5.2413ZM4.31073 12.8686L4.32318 17.3958L12.0869 21.8781L12.1127 18.8621L12.2353 18.7395C12.4743 18.5005 12.8552 18.5555 13.0023 18.8501C13.0778 19.0011 13.0877 19.1874 13.0878 20.4493C13.0878 21.2348 13.0985 21.8775 13.1115 21.8775C13.1245 21.8775 14.2067 21.2586 15.5163 20.5021C16.826 19.7456 18.5677 18.7403 19.3868 18.2681L20.876 17.4096L20.8885 12.8767C20.8954 10.3835 20.8824 8.35109 20.8597 8.36007C20.8371 8.36906 19.0798 9.27732 16.9547 10.3784L13.0909 12.3804L13.0892 13.5034C13.0881 14.1211 13.0651 14.7066 13.0379 14.8046C12.9417 15.1509 12.4925 15.2632 12.2434 15.0031L12.113 14.8671L12.0869 12.3954L8.25387 10.3922C6.1457 9.29045 4.39325 8.37829 4.35956 8.3652C4.31058 8.34616 4.30077 9.25271 4.31073 12.8686ZM12.2819 16.5187C12.1959 16.5927 12.1451 16.6956 12.1266 16.8337C12.1022 17.0155 12.116 17.0557 12.2479 17.1876C12.4415 17.3812 12.7226 17.394 12.9265 17.2186C13.0402 17.1208 13.0635 17.062 13.0635 16.8726C13.0635 16.6831 13.0402 16.6244 12.9265 16.5265C12.7449 16.3703 12.4584 16.3669 12.2819 16.5187ZM1.07608 23.363V22.4516C1.07608 21.4621 1.04942 21.3308 0.82486 21.2147C0.572074 21.084 0.266164 21.1746 0.157862 21.4123C0.116846 21.5022 0.0995121 21.9646 0.0996098 22.9662C0.0996586 24.5588 0.111768 24.626 0.436331 24.8429C0.599907 24.9521 0.623637 24.9537 2.11247 24.9537H3.62268L3.76541 24.811C4.01561 24.5608 3.92962 24.1429 3.60467 24.0296C3.52146 24.0006 3.10315 23.9771 2.66989 23.9771H1.88566L4.59173 21.2598V21.0382C4.59173 20.728 4.42279 20.5591 4.11253 20.5591H3.8908L1.07608 23.363ZM20.6874 20.7367C20.5861 20.838 20.5587 20.9127 20.5587 21.0872V21.3089L23.3625 24.1236H22.4512C21.4616 24.1236 21.3303 24.1503 21.2142 24.3748C21.0835 24.6276 21.1741 24.9335 21.4118 25.0418C21.5017 25.0829 21.9641 25.1002 22.9658 25.1001C24.5583 25.1 24.6255 25.0879 24.8424 24.7634C24.9516 24.5998 24.9532 24.5758 24.9532 23.0948V21.592L24.8268 21.4418C24.7247 21.3204 24.6631 21.2916 24.5062 21.2916C24.0481 21.2916 23.9767 21.4576 23.9767 22.521V23.314L21.2593 20.608H21.0377C20.8634 20.608 20.7886 20.6354 20.6874 20.7367Z" fill="#333A40" stroke="#333A40" stroke-width="0.2"/>
</svg>
