<svg width="25" height="27" viewBox="0 0 25 27" fill="none" xmlns="http://www.w3.org/2000/svg">
<path d="M24.7803 6.686C24.6223 4.0585 22.4283 2 19.7858 2H18.4993V1C18.4993 0.734784 18.394 0.48043 18.2064 0.292893C18.0189 0.105357 17.7645 0 17.4993 0C17.2341 0 16.9798 0.105357 16.7922 0.292893C16.6047 0.48043 16.4993 0.734784 16.4993 1V2H8.49932V1C8.49932 0.734784 8.39397 0.48043 8.20643 0.292893C8.0189 0.105357 7.76454 0 7.49932 0C7.23411 0 6.97975 0.105357 6.79222 0.292893C6.60468 0.48043 6.49932 0.734784 6.49932 1V2H5.21282C2.56982 2 0.375825 4.0585 0.218325 6.686C-0.0781749 11.628 -0.0726749 16.641 0.234825 21.5855C0.390825 24.0965 2.40232 26.108 4.91332 26.264C7.42982 26.4205 9.96432 26.4985 12.4988 26.4985C15.0328 26.4985 17.5678 26.4205 20.0843 26.264C22.5953 26.108 24.6068 24.0965 24.7628 21.5855C25.0708 16.6435 25.0763 11.631 24.7803 6.686ZM22.7673 21.4615C22.721 22.1906 22.4104 22.8779 21.8938 23.3945C21.3772 23.9111 20.69 24.2217 19.9608 24.268C15.0098 24.5755 9.98882 24.5755 5.03782 24.268C4.30869 24.2217 3.62145 23.9111 3.10484 23.3945C2.58822 22.8779 2.27766 22.1906 2.23132 21.4615C1.99694 17.6457 1.94405 13.8209 2.07283 10H22.9263C23.0523 13.82 23.0038 17.6615 22.7673 21.4615ZM7.49932 6C7.76454 6 8.0189 5.89464 8.20643 5.70711C8.39397 5.51957 8.49932 5.26522 8.49932 5V4H16.4993V5C16.4993 5.26522 16.6047 5.51957 16.7922 5.70711C16.9798 5.89464 17.2341 6 17.4993 6C17.7645 6 18.0189 5.89464 18.2064 5.70711C18.394 5.51957 18.4993 5.26522 18.4993 5V4H19.7858C21.3723 4 22.6893 5.2325 22.7838 6.8055C22.8073 7.2025 22.8173 7.602 22.8368 8H2.16182C2.18182 7.602 2.19132 7.2025 2.21482 6.8055C2.30932 5.2325 3.62582 4 5.21282 4H6.49932V5C6.49932 5.26522 6.60468 5.51957 6.79222 5.70711C6.97975 5.89464 7.23411 6 7.49932 6Z" fill="#4269F2"/>
<path d="M7.49951 16C8.32794 16 8.99951 15.3284 8.99951 14.5C8.99951 13.6716 8.32794 13 7.49951 13C6.67108 13 5.99951 13.6716 5.99951 14.5C5.99951 15.3284 6.67108 16 7.49951 16Z" fill="#4269F2"/>
<path d="M12.4995 16C13.3279 16 13.9995 15.3284 13.9995 14.5C13.9995 13.6716 13.3279 13 12.4995 13C11.6711 13 10.9995 13.6716 10.9995 14.5C10.9995 15.3284 11.6711 16 12.4995 16Z" fill="#4269F2"/>
<path d="M7.49951 21C8.32794 21 8.99951 20.3284 8.99951 19.5C8.99951 18.6716 8.32794 18 7.49951 18C6.67108 18 5.99951 18.6716 5.99951 19.5C5.99951 20.3284 6.67108 21 7.49951 21Z" fill="#4269F2"/>
<path d="M17.4995 16C18.3279 16 18.9995 15.3284 18.9995 14.5C18.9995 13.6716 18.3279 13 17.4995 13C16.6711 13 15.9995 13.6716 15.9995 14.5C15.9995 15.3284 16.6711 16 17.4995 16Z" fill="#4269F2"/>
<path d="M17.4995 21C18.3279 21 18.9995 20.3284 18.9995 19.5C18.9995 18.6716 18.3279 18 17.4995 18C16.6711 18 15.9995 18.6716 15.9995 19.5C15.9995 20.3284 16.6711 21 17.4995 21Z" fill="#4269F2"/>
<path d="M12.4995 21C13.3279 21 13.9995 20.3284 13.9995 19.5C13.9995 18.6716 13.3279 18 12.4995 18C11.6711 18 10.9995 18.6716 10.9995 19.5C10.9995 20.3284 11.6711 21 12.4995 21Z" fill="#4269F2"/>
</svg>
