<svg width="23" height="23" viewBox="0 0 23 23" fill="none" xmlns="http://www.w3.org/2000/svg">
<path d="M0.646484 12.8818H9.17383C9.21263 12.8818 9.24985 12.8974 9.27734 12.9248C9.30479 12.9523 9.32023 12.9895 9.32031 13.0283V21.543C9.32031 21.5819 9.30486 21.619 9.27734 21.6465C9.24983 21.6739 9.2127 21.6895 9.17383 21.6895H0.646484C0.607658 21.6894 0.570426 21.6739 0.542969 21.6465C0.515531 21.619 0.5 21.5818 0.5 21.543V13.0283C0.500077 12.9895 0.515519 12.9523 0.542969 12.9248C0.570425 12.8974 0.607666 12.8819 0.646484 12.8818ZM13.1807 12.8818H21.708C21.7468 12.8819 21.784 12.8974 21.8115 12.9248C21.839 12.9523 21.8544 12.9895 21.8545 13.0283V21.543C21.8545 21.5819 21.839 21.619 21.8115 21.6465C21.784 21.674 21.7469 21.6894 21.708 21.6895H13.1807C13.1418 21.6895 13.1047 21.674 13.0771 21.6465C13.0496 21.619 13.0342 21.5819 13.0342 21.543V13.0283C13.0343 12.9895 13.0497 12.9523 13.0771 12.9248C13.1046 12.8974 13.1418 12.8818 13.1807 12.8818ZM0.793945 21.4092H9.02734V13.1758H0.793945V21.4092ZM13.3271 21.4092H21.5615V13.1758H13.3271V21.4092ZM0.646484 0.5H9.17383C9.21264 0.5 9.24984 0.515593 9.27734 0.542969C9.3048 0.570428 9.32024 0.60766 9.32031 0.646484V9.17383C9.32031 9.21274 9.30486 9.24982 9.27734 9.27734C9.24982 9.30486 9.21274 9.32031 9.17383 9.32031H0.646484C0.60766 9.32024 0.570428 9.3048 0.542969 9.27734C0.515593 9.24984 0.5 9.21264 0.5 9.17383V0.646484C0.500068 0.607659 0.51551 0.570428 0.542969 0.542969C0.570428 0.51551 0.607659 0.500068 0.646484 0.5ZM13.1807 0.5H21.708C21.7469 0.500032 21.784 0.515522 21.8115 0.542969C21.839 0.570426 21.8544 0.607658 21.8545 0.646484V9.17383C21.8545 9.21267 21.8389 9.24984 21.8115 9.27734C21.784 9.30483 21.7469 9.32028 21.708 9.32031H13.1807C13.1417 9.32031 13.1047 9.30486 13.0771 9.27734C13.0497 9.24983 13.0342 9.21271 13.0342 9.17383V0.646484C13.0342 0.607658 13.0497 0.570427 13.0771 0.542969C13.1047 0.515551 13.1418 0.5 13.1807 0.5ZM0.793945 9.02734H9.02734V0.793945H0.793945V9.02734ZM13.3271 9.02734H21.5615V0.793945H13.3271V9.02734Z" stroke="#D9D9D9"/>
</svg>
