<svg width="24" height="15" viewBox="0 0 24 15" fill="none" xmlns="http://www.w3.org/2000/svg">
<path d="M0 13.8855C0 14.1424 0.111942 14.3888 0.311199 14.5705C0.510456 14.7522 0.780707 14.8542 1.0625 14.8542H2.47917C2.76096 14.8542 3.03121 14.7522 3.23047 14.5705C3.42973 14.3888 3.54167 14.1424 3.54167 13.8855C3.54167 13.6286 3.42973 13.3822 3.23047 13.2005C3.03121 13.0188 2.76096 12.9167 2.47917 12.9167H1.0625C0.780707 12.9167 0.510456 13.0188 0.311199 13.2005C0.111942 13.3822 0 13.6286 0 13.8855ZM2.47917 8.39592H1.0625C0.780707 8.39592 0.510456 8.29385 0.311199 8.11217C0.111942 7.9305 0 7.68409 0 7.42717C0 7.17024 0.111942 6.92383 0.311199 6.74216C0.510456 6.56048 0.780707 6.45842 1.0625 6.45842H2.47917C2.76096 6.45842 3.03121 6.56048 3.23047 6.74216C3.42973 6.92383 3.54167 7.17024 3.54167 7.42717C3.54167 7.68409 3.42973 7.9305 3.23047 8.11217C3.03121 8.29385 2.76096 8.39592 2.47917 8.39592ZM2.47917 1.93758H1.0625C0.780707 1.93758 0.510456 1.83552 0.311199 1.65384C0.111942 1.47217 0 1.22576 0 0.968832C0 0.711904 0.111942 0.465497 0.311199 0.283821C0.510456 0.102145 0.780707 8.2016e-05 1.0625 8.2016e-05H2.47917C2.76096 8.2016e-05 3.03121 0.102145 3.23047 0.283821C3.42973 0.465497 3.54167 0.711904 3.54167 0.968832C3.54167 1.22576 3.42973 1.47217 3.23047 1.65384C3.03121 1.83552 2.76096 1.93758 2.47917 1.93758ZM5.66667 13.8855C5.66667 14.1424 5.77861 14.3888 5.97787 14.5705C6.17712 14.7522 6.44737 14.8542 6.72917 14.8542H22.3125C22.5943 14.8542 22.8645 14.7522 23.0638 14.5705C23.2631 14.3888 23.375 14.1424 23.375 13.8855C23.375 13.6286 23.2631 13.3822 23.0638 13.2005C22.8645 13.0188 22.5943 12.9167 22.3125 12.9167H6.72917C6.44737 12.9167 6.17712 13.0188 5.97787 13.2005C5.77861 13.3822 5.66667 13.6286 5.66667 13.8855ZM22.3125 8.39592H6.72917C6.44737 8.39592 6.17712 8.29385 5.97787 8.11217C5.77861 7.9305 5.66667 7.68409 5.66667 7.42717C5.66667 7.17024 5.77861 6.92383 5.97787 6.74216C6.17712 6.56048 6.44737 6.45842 6.72917 6.45842H22.3125C22.5943 6.45842 22.8645 6.56048 23.0638 6.74216C23.2631 6.92383 23.375 7.17024 23.375 7.42717C23.375 7.68409 23.2631 7.9305 23.0638 8.11217C22.8645 8.29385 22.5943 8.39592 22.3125 8.39592ZM22.3125 1.93758H6.72917C6.44737 1.93758 6.17712 1.83552 5.97787 1.65384C5.77861 1.47217 5.66667 1.22576 5.66667 0.968832C5.66667 0.711904 5.77861 0.465497 5.97787 0.283821C6.17712 0.102145 6.44737 8.2016e-05 6.72917 8.2016e-05H22.3125C22.5943 8.2016e-05 22.8645 0.102145 23.0638 0.283821C23.2631 0.465497 23.375 0.711904 23.375 0.968832C23.375 1.22576 23.2631 1.47217 23.0638 1.65384C22.8645 1.83552 22.5943 1.93758 22.3125 1.93758Z" fill="#D9D9D9"/>
</svg>
