<svg width="67" height="126" viewBox="0 0 67 126" fill="none" xmlns="http://www.w3.org/2000/svg">
<g style="mix-blend-mode:luminosity" opacity="0.18">
<path d="M64.516 209.333V102.308H0.513317C0.513317 102.308 0.48665 209.132 0.513317 209.333C0.65865 210.453 1.54 211.602 3.12666 212.518L26.9973 226.301C30.184 228.141 35.0053 228.34 37.7653 226.746L62.676 212.365C64.0626 211.564 64.664 210.464 64.516 209.333Z" fill="#F2F2F2"/>
<path d="M1.00413 102.798C1.00279 109.685 0.97879 208.466 1.00279 209.312C1.13212 210.284 1.97479 211.286 3.37213 212.093L27.2428 225.876C28.8588 226.809 30.9148 227.302 32.8788 227.336C32.9708 227.337 33.0628 227.338 33.1535 227.337C33.2801 227.337 33.1655 116.7 33.1655 116.7L64.0255 102.798H1.00413ZM33.0908 228.304C30.8841 228.304 28.5601 227.769 26.7521 226.725L2.88147 212.942C1.21347 211.981 0.198814 210.72 0.026814 209.397C0.00148064 209.205 0.0108101 140.758 0.0228101 102.308V101.817H64.5214C64.7894 101.817 65.0068 102.036 65.0068 102.304V209.302C65.1695 210.661 64.4108 211.93 62.9214 212.789L38.0108 227.172C36.6962 227.932 34.9334 228.304 33.0908 228.304Z" fill="#9EA4B7"/>
<path d="M62.676 105.34L37.7653 119.722C35.0053 121.316 30.184 121.116 26.9973 119.276L3.12665 105.493C-0.0600139 103.653 -0.406687 100.87 2.35331 99.277L27.264 84.8943C30.024 83.301 34.8453 83.501 38.032 85.341L61.9027 99.1223C65.0893 100.962 65.436 103.746 62.676 105.34Z" fill="#F2F2F2"/>
<path d="M61.5841 103.002L37.7121 89.2196C34.5254 87.3809 29.7041 87.1809 26.9441 88.7742L2.03477 103.156C1.60543 103.404 1.26145 103.682 0.981445 103.978C1.41745 104.512 2.02544 105.021 2.80677 105.472L26.6774 119.253C29.8654 121.093 34.6854 121.293 37.4454 119.7L62.3561 105.318C62.7854 105.07 63.1294 104.792 63.4094 104.496C62.9734 103.962 62.3654 103.453 61.5841 103.002Z" fill="white"/>
<path d="M31.94 84.3037C30.276 84.3037 28.6906 84.6383 27.5093 85.3196L2.59867 99.7023C1.55467 100.304 0.981315 101.113 0.981315 101.977C0.981315 103.065 1.85197 104.192 3.37197 105.069L27.2426 118.85C30.288 120.609 34.8987 120.809 37.52 119.297L62.4307 104.914C63.4747 104.313 64.048 103.504 64.048 102.64C64.048 101.552 63.1773 100.425 61.6573 99.5477L37.7867 85.7663C36.1133 84.7997 33.968 84.3037 31.94 84.3037ZM33.0893 121.278C30.8827 121.278 28.56 120.745 26.752 119.701L2.88131 105.918C1.04932 104.861 0 103.425 0 101.977C0 100.746 0.747975 99.637 2.10798 98.8517L27.0187 84.469C29.9093 82.8023 34.96 83.001 38.2773 84.9156L62.148 98.697C63.98 99.7557 65.0307 101.192 65.0307 102.64C65.0307 103.87 64.2813 104.98 62.9213 105.765L38.0107 120.146C36.696 120.906 34.9333 121.278 33.0893 121.278Z" fill="#9EA4B7"/>
<path d="M54.9575 28.4158L52.9868 24.9358C59.0748 21.4865 61.2535 12.9291 62.0041 8.22378L54.9722 12.2838L52.9722 8.82111L62.0802 3.56245C63.0735 2.98912 64.1868 2.98113 65.0535 3.5438C65.9441 4.11713 66.4015 5.17312 66.2802 6.36779C65.7775 11.3531 63.6681 23.4811 54.9575 28.4158Z" fill="#9EA4B7"/>
<path d="M54.6746 98.9636H47.6973L34.784 91.5089C33.4213 90.7222 31.36 90.6369 30.18 91.3182L16.9359 98.9636H9.95996V103.769L9.96396 103.772C10.0013 104.269 10.3733 104.785 11.0799 105.194L29.8493 116.03C31.212 116.817 33.2733 116.902 34.4533 116.221L53.8826 105.004C54.4493 104.676 54.7026 104.23 54.6693 103.77L54.6746 103.769V98.9636Z" fill="white"/>
<path d="M10.4585 103.692L10.4625 103.734C10.4892 104.084 10.8038 104.457 11.3292 104.761L30.0998 115.597C30.7785 115.99 31.6745 116.188 32.5091 116.18V111.876L54.1731 99.4637H47.5625L34.5345 91.9424C33.3305 91.2477 31.4518 91.1597 30.4305 91.7504L17.0691 99.4637H10.4585V103.692ZM32.4478 117.182C31.4585 117.182 30.4238 116.94 29.5998 116.462L10.8292 105.626C10.1345 105.226 9.68116 104.706 9.52383 104.141L9.4585 103.769V98.8224C9.4585 98.625 9.61982 98.4637 9.81715 98.4637H16.8011L29.9305 90.885C31.2665 90.1117 33.5091 90.1957 35.0345 91.0757L47.8305 98.4637H54.8132C55.0118 98.4637 55.1718 98.6264 55.1705 98.825L55.1332 104.2C55.0198 104.689 54.6718 105.124 54.1332 105.436L34.7038 116.653C34.0891 117.009 33.2852 117.182 32.4478 117.182Z" fill="#9EA4B7"/>
<path d="M53.8829 100.198L34.4535 111.416C33.2735 112.097 31.2122 112.012 29.8495 111.225L11.0802 100.389C9.71751 99.6024 9.56951 98.4117 10.7508 97.7304L30.1802 86.513C31.3602 85.8317 33.4215 85.917 34.7842 86.7037L53.5535 97.5397C54.9162 98.3264 55.0642 99.517 53.8829 100.198Z" fill="white"/>
<path d="M34.7881 89.2037C33.4254 88.417 31.3641 88.3317 30.1828 89.013L10.8081 100.2C10.8974 100.264 10.9801 100.329 11.0841 100.389L29.8521 111.225C31.2147 112.012 33.2774 112.097 34.4574 111.416L53.8321 100.23C53.7428 100.165 53.6601 100.1 53.5561 100.04L34.7881 89.2037Z" fill="#D6D9E3"/>
<path d="M32.1731 86.5543C31.5118 86.5543 30.8865 86.6823 30.4305 86.9463L11.0011 98.1636C10.7504 98.3076 10.4531 98.549 10.4531 98.885C10.4531 99.2383 10.7798 99.6396 11.3291 99.9556L30.0998 110.792C31.2985 111.484 33.1798 111.573 34.2038 110.984L53.6331 99.765C53.8838 99.621 54.1798 99.3783 54.1798 99.0436C54.1798 98.6903 53.8518 98.2889 53.3025 97.9729L34.5344 87.137C33.8678 86.753 32.9944 86.5543 32.1731 86.5543ZM32.4478 112.377C31.4598 112.377 30.4251 112.134 29.5998 111.658L10.8291 100.822C9.95447 100.317 9.45312 99.6103 9.45312 98.885C9.45312 98.2503 9.82511 97.6863 10.5011 97.297L29.9305 86.0796C31.2665 85.3076 33.5091 85.3903 35.0344 86.2703L53.8025 97.1063C54.6771 97.6116 55.1798 98.3183 55.1798 99.0436C55.1798 99.677 54.8078 100.241 54.1331 100.63L34.7038 111.849C34.0904 112.202 33.2851 112.377 32.4478 112.377Z" fill="#9EA4B7"/>
<path d="M48.9984 98.297L46.2091 76.9596H18.4304L15.6571 98.1143C15.6398 98.1743 15.6358 98.233 15.6331 98.2943L15.6211 98.3836L15.6291 98.3863C15.6571 98.7583 15.9358 99.1436 16.4638 99.4476L30.4771 107.54C31.4944 108.126 33.0345 108.19 33.9158 107.681L48.4237 99.305C48.8824 99.041 49.0664 98.6716 48.9984 98.297Z" fill="white"/>
<path d="M16.1295 98.3582C16.1495 98.5702 16.3681 98.8142 16.7135 99.0142L30.7268 107.106C31.1468 107.348 31.6775 107.488 32.1961 107.52L32.1948 81.7756L18.8695 77.4596L16.1121 98.1889L16.1282 98.3489C16.1282 98.3516 16.1282 98.3542 16.1295 98.3582ZM32.4188 108.525C31.6574 108.525 30.8615 108.338 30.2268 107.972L16.2135 99.8809C15.7055 99.5876 15.3601 99.2116 15.2121 98.7969L15.1255 98.3196C15.1375 98.1956 15.1455 98.0942 15.1735 97.9862L17.9922 76.4596H46.3481C46.5201 76.4596 46.6641 76.5876 46.6868 76.7569L49.4948 98.2209C49.5962 98.8169 49.2895 99.3836 48.6735 99.7382L34.1655 108.114C33.6908 108.389 33.0668 108.525 32.4188 108.525Z" fill="#9EA4B7"/>
<path d="M45.7215 77.7263L33.6482 84.697C32.9149 85.1197 31.6336 85.0677 30.7869 84.5784L19.1242 77.845C18.2776 77.357 18.1856 76.617 18.9189 76.193L30.9922 69.2237C31.7256 68.7997 33.0069 68.853 33.8536 69.3423L45.5149 76.0743C46.3629 76.5637 46.4549 77.3037 45.7215 77.7263Z" fill="white"/>
<path d="M33.5851 84.697L44.9505 78.1343L33.6665 71.6197C32.8185 71.1303 31.5385 71.077 30.8052 71.501L19.4385 78.0623L30.7238 84.5784C31.5705 85.0677 32.8518 85.1197 33.5851 84.697Z" fill="#D6D9E3"/>
<path d="M32.2278 69.4383C31.8505 69.4383 31.4958 69.509 31.2425 69.6556L19.1691 76.6263C19.0958 76.669 18.9238 76.7823 18.9238 76.9117C18.9238 77.0223 19.0425 77.2197 19.3745 77.4117L31.0371 84.145C31.7198 84.5383 32.8238 84.5943 33.3972 84.2636L45.4705 77.293C45.5451 77.2516 45.7159 77.1383 45.7159 77.009C45.7159 76.897 45.5985 76.6996 45.2651 76.5077L33.6038 69.7743C33.2198 69.5543 32.7065 69.4383 32.2278 69.4383ZM32.4025 85.481C31.7545 85.481 31.0758 85.3223 30.5371 85.0103L18.8745 78.2783C18.2705 77.929 17.9238 77.4317 17.9238 76.9117C17.9238 76.4463 18.1891 76.0383 18.6691 75.761L30.7425 68.7903C31.6291 68.2783 33.1051 68.333 34.1038 68.909L45.7651 75.6423C46.3691 75.9903 46.7159 76.489 46.7159 77.009C46.7159 77.4663 46.4438 77.8863 45.9705 78.1596L33.8972 85.1303C33.4905 85.365 32.9572 85.481 32.4025 85.481Z" fill="#9EA4B7"/>
<path d="M39.1147 74.5091C39.1147 74.5091 36.0147 71.4065 36.0147 60.0105H32.3174H28.6187C28.6187 71.4065 25.5187 74.5091 25.5187 74.5091C24.5827 75.9558 25.324 77.6464 27.3373 78.8078C30.088 80.3958 34.5453 80.3958 37.296 78.8078C39.3093 77.6451 40.0507 75.9544 39.1147 74.5091Z" fill="white"/>
<path d="M30.3454 77.7411C28.332 76.5784 27.5907 74.8878 28.5267 73.4411C28.5267 73.4411 31.4187 70.5145 31.6081 60.0105H28.6187C28.6187 71.4065 25.5187 74.5091 25.5187 74.5091C24.5827 75.9558 25.324 77.6451 27.3373 78.8078C30.088 80.3958 34.5453 80.3958 37.296 78.8078C37.3387 78.7838 37.3734 78.7544 37.4161 78.7291C34.9974 79.1638 32.2614 78.8464 30.3454 77.7411Z" fill="#C3CAE0"/>
<path d="M29.1159 60.5104C29.0279 71.5757 26.0026 74.7317 25.8732 74.8624C25.6386 75.2424 25.5492 75.7304 25.6692 76.2317C25.8559 77.0077 26.5372 77.769 27.5879 78.3757C29.0039 79.193 30.9026 79.493 32.7626 79.4957C38.2612 79.505 33.2092 71.753 33.1266 61.2664L29.1159 60.5104ZM32.3173 80.489C30.4239 80.489 28.5292 80.073 27.0879 79.241C25.7972 78.497 24.9479 77.5104 24.6973 76.4664C24.5119 75.6997 24.6519 74.929 25.0999 74.237C25.1919 74.1277 28.1186 70.9757 28.1186 60.0104V59.5104H36.5146V60.0104C36.5146 70.9757 39.4399 74.1277 39.4706 74.1583L39.5333 74.237C39.9813 74.929 40.1199 75.6997 39.9359 76.4664C39.6839 77.5104 38.8346 78.497 37.5466 79.241C36.1053 80.073 34.2106 80.489 32.3173 80.489Z" fill="#9EA4B7"/>
<path d="M37.6281 60.5516V55.1436H27.0054V60.5529C27.0054 61.3369 27.5241 62.1222 28.5614 62.7209C30.6347 63.9182 33.9987 63.9182 36.0721 62.7209C37.1094 62.1222 37.6281 61.3369 37.6281 60.5516Z" fill="white"/>
<path d="M30.9519 63.0076C29.9146 62.4089 29.3959 61.6236 29.3959 60.8396V55.4303H37.6306V55.4263H27.0093V60.8356C27.0093 61.6196 27.5279 62.4049 28.5653 63.0036C29.9053 63.7783 31.7813 64.0436 33.5026 63.8169C32.5693 63.6916 31.6799 63.4276 30.9519 63.0076Z" fill="#C3CAE0"/>
<path d="M27.5054 55.6436V60.5529C27.5054 61.1849 27.9694 61.8009 28.812 62.2875C29.9854 62.9649 31.6054 63.2315 33.1281 63.0862L33.1227 59.0169L37.1281 55.6436H27.5054ZM32.3174 64.1262C30.876 64.1262 29.4347 63.8022 28.312 63.1529C27.148 62.4822 26.5054 61.5582 26.5054 60.5529V54.6436H38.1281V60.5515C38.1281 61.5569 37.4867 62.4822 36.3227 63.1529C35.1987 63.8022 33.7574 64.1262 32.3174 64.1262Z" fill="#9EA4B7"/>
<path d="M56.7278 14.581H7.90508C7.90508 14.581 7.17578 37.753 23.8984 56.005C24.3451 56.5876 24.9731 57.1343 25.7998 57.6117C29.3984 59.6903 35.2344 59.6903 38.8331 57.6117C39.6598 57.1343 40.2877 56.5876 40.7344 56.005C57.4571 37.753 56.7278 14.581 56.7278 14.581Z" fill="white"/>
<path d="M14.7202 18.7063H56.5748C56.7775 16.1903 56.7308 14.6997 56.7308 14.6997H32.3202H7.90948C7.90948 14.6997 7.18014 37.8717 23.9028 56.1237C24.3495 56.705 24.9775 57.253 25.8041 57.7317C26.9455 58.389 28.3201 58.8157 29.7681 59.0557C14.0308 40.9823 14.7202 18.7063 14.7202 18.7063Z" fill="#E3E7F5"/>
<path d="M8.40282 15.0809C8.42549 18.4955 9.20415 39.2262 24.2682 55.6662C24.7202 56.2556 25.3122 56.7529 26.0508 57.1782C27.9842 58.2956 30.5975 58.7875 33.1295 58.6529C35.1201 58.5489 43.3775 30.6009 37.6282 17.3502L8.40282 15.0809ZM32.3175 59.6609C29.8655 59.6609 27.4162 59.1222 25.5508 58.0449C24.6975 57.5529 24.0082 56.9676 23.5015 56.3089C6.86282 38.1502 7.39883 14.7982 7.40549 14.5649L7.42151 14.0809H57.2122L57.2268 14.5649C57.2335 14.7982 57.7708 38.1502 41.1042 56.3436C40.6242 56.9689 39.9349 57.5529 39.0829 58.0449C37.2175 59.1222 34.7668 59.6609 32.3175 59.6609Z" fill="#AAAFBF"/>
<path d="M49.5776 4.61432C59.1109 10.1183 59.1109 19.0423 49.5776 24.5463C40.0456 30.0503 24.5882 30.0503 15.0562 24.5463C5.52292 19.0423 5.52292 10.1183 15.0562 4.61432C24.5882 -0.889679 40.0456 -0.889679 49.5776 4.61432Z" fill="white"/>
<path d="M49.5786 5.71037C40.0452 0.206371 24.5893 0.206371 15.0559 5.71037C10.5519 8.31037 8.20259 11.6743 7.95459 15.081C8.20392 18.4863 10.5519 21.8503 15.0559 24.4503C24.5893 29.9557 40.0452 29.9557 49.5786 24.4503C54.0826 21.8503 56.4306 18.4863 56.6786 15.081C56.4306 11.6743 54.0826 8.31037 49.5786 5.71037Z" fill="white"/>
<path d="M32.3173 0.98633C26.156 0.98633 19.9959 2.33966 15.3053 5.04766C10.8559 7.61699 8.40527 11.0023 8.40527 14.581C8.40527 18.1583 10.8559 21.5437 15.3053 24.113C24.6853 29.529 39.9466 29.529 49.328 24.113C53.7773 21.5437 56.228 18.1583 56.228 14.581C56.228 11.0023 53.7773 7.61699 49.328 5.04766C44.6386 2.34099 38.4773 0.98633 32.3173 0.98633ZM32.3173 29.1597C25.976 29.1597 19.6333 27.7664 14.8053 24.9784C10.0346 22.2237 7.40527 18.5317 7.40527 14.581C7.40527 10.6303 10.0333 6.93699 14.8053 4.18099C24.4626 -1.39367 40.172 -1.39367 49.828 4.18099C54.6 6.93699 57.228 10.629 57.228 14.581C57.228 18.5317 54.6 22.2237 49.828 24.9784C44.9986 27.7664 38.6586 29.1597 32.3173 29.1597Z" fill="#9EA4B7"/>
<path d="M47.2758 6.43312C55.5371 10.9331 55.5371 18.2291 47.2758 22.7278C39.0131 27.2278 25.6185 27.2278 17.3571 22.7278C9.0958 18.2291 9.0958 10.9331 17.3571 6.43312C25.6198 1.93312 39.0145 1.93312 47.2758 6.43312Z" fill="white"/>
<path d="M47.2759 6.337C39.8079 2.27033 28.1586 1.89301 19.8853 5.17834C27.6679 3.27167 37.1266 4.04632 43.5199 7.52899C51.7813 12.0277 51.7813 19.3236 43.5199 23.8236C42.7253 24.2556 41.8719 24.6343 40.9919 24.9836C43.2679 24.4263 45.4066 23.6503 47.2759 22.633C55.5372 18.133 55.5372 10.837 47.2759 6.337Z" fill="#C3CAE0"/>
<path d="M32.3171 3.52892C30.7638 3.52892 29.2118 3.62227 27.6904 3.81027C23.9918 4.26494 17.3304 24.8502 30.4518 25.5862C36.3798 25.9196 42.4971 24.7862 47.0251 22.3196C50.8598 20.2316 52.9718 17.4822 52.9718 14.5809C52.9718 11.6782 50.8598 8.93027 47.0251 6.84093C42.9705 4.63294 37.6438 3.52892 32.3171 3.52892ZM32.3158 26.5623C26.8078 26.5623 21.2998 25.4209 17.1064 23.1369C12.9491 20.8716 10.6611 17.8342 10.6611 14.5809C10.6611 11.3276 12.9491 8.28892 17.1064 6.02358C25.4918 1.45825 39.1385 1.45692 47.5251 6.02358C51.6825 8.28892 53.9718 11.3276 53.9718 14.5809C53.9718 17.8342 51.6825 20.8716 47.5251 23.1369C43.3318 25.4209 37.8252 26.5623 32.3158 26.5623Z" fill="#9EA4B7"/>
<path d="M55.6454 27.333L54.9961 27.1797C55.4694 25.173 55.8934 22.281 55.8988 22.253L56.5574 22.349C56.5534 22.3783 56.1241 25.2983 55.6454 27.333Z" fill="#F2F2F2"/>
<path d="M33.8946 59.5024L33.8506 58.8384C33.8706 58.8358 35.8213 58.7011 37.2946 58.1224L37.5372 58.7438C35.9652 59.3598 33.9786 59.4971 33.8946 59.5024Z" fill="#F2F2F2"/>
<path d="M33.9359 63.7197L33.8105 63.0637C33.8239 63.0624 35.1332 62.8091 35.9265 62.4211L36.2185 63.0197C35.3452 63.4477 33.9932 63.7077 33.9359 63.7197Z" fill="#F2F2F2"/>
<path d="M15.3121 50.041C14.3095 50.041 13.3588 49.8197 12.4668 49.3743C8.73484 47.513 7.40949 42.373 6.95482 38.3903C6.77349 36.8063 7.72016 34.9863 9.15482 34.1597L16.5308 29.901C17.4868 29.349 18.7082 29.677 19.2602 30.6317L19.2615 30.6357C19.8135 31.5903 19.4868 32.813 18.5308 33.365L11.1535 37.6237C11.0775 37.6823 10.9468 37.9063 10.9322 38.021C11.3922 41.9917 12.6655 45.0023 14.2522 45.7943C14.9308 46.1343 15.7975 46.109 16.8348 45.7223C17.7108 45.3943 18.6975 45.7997 19.1721 46.6063C19.8068 47.6837 19.3042 49.081 18.1282 49.5077C17.1495 49.8637 16.2095 50.041 15.3121 50.041Z" fill="#9EA4B7"/>
</g>
</svg>
