<svg width="23" height="12" viewBox="0 0 23 12" fill="none" xmlns="http://www.w3.org/2000/svg">
<path d="M19.2755 0H13.7683C13.2607 0 12.8504 0.410287 12.8504 0.917869C12.8504 1.42545 13.2607 1.83574 13.7683 1.83574H18.8955L12.8724 7.85879C12.3547 8.37647 11.5121 8.37647 10.9935 7.85879L8.66308 5.52832C7.42946 4.29471 5.42208 4.29471 4.18847 5.52832L0.269165 9.44762C-0.0897217 9.80651 -0.0897217 10.3866 0.269165 10.7455C0.448149 10.9245 0.683124 11.0144 0.918098 11.0144C1.15307 11.0144 1.38805 10.9245 1.56703 10.7455L5.48633 6.82619C5.98841 6.32412 6.86314 6.32412 7.36521 6.82619L9.69568 9.15666C10.9293 10.3903 12.9367 10.3903 14.1703 9.15666L20.1943 3.1336V8.26082C20.1943 8.7684 20.6045 9.17869 21.1121 9.17869C21.6197 9.17869 22.03 8.7684 22.03 8.26082V2.75361C22.03 1.23545 20.7936 0 19.2755 0Z" fill="#4269F2"/>
</svg>
