<svg width="22" height="22" viewBox="0 0 22 22" fill="none" xmlns="http://www.w3.org/2000/svg">
<path d="M3.51 17.21H3.62L6.55 16.94C6.96 16.9 7.34 16.72 7.63 16.43L18.69 5.37C19.21 4.85 19.5 4.16 19.5 3.43C19.5 2.7 19.21 2.01 18.69 1.49L17.98 0.78C16.94 -0.26 15.13 -0.26 14.09 0.78L12.68 2.19L3.04 11.83C2.75 12.12 2.57 12.5 2.54 12.91L2.27 15.84C2.24 16.21 2.37 16.57 2.63 16.84C2.87 17.08 3.18 17.21 3.51 17.21ZM16.04 1.47C16.36 1.47 16.68 1.59 16.92 1.84L17.63 2.55C17.7468 2.66485 17.8396 2.80181 17.903 2.9529C17.9663 3.10399 17.9989 3.26617 17.9989 3.43C17.9989 3.59383 17.9663 3.75601 17.903 3.9071C17.8396 4.05819 17.7468 4.19515 17.63 4.31L16.75 5.19L14.28 2.72L15.16 1.84C15.4 1.6 15.72 1.47 16.04 1.47ZM4.03 13.05C4.03 12.99 4.06 12.94 4.1 12.9L13.21 3.78L15.68 6.25L6.57 15.36C6.57 15.36 6.47 15.43 6.42 15.43L3.79 15.67L4.03 13.04V13.05ZM21.5 20.4C21.5 20.81 21.16 21.15 20.75 21.15H0.75C0.34 21.15 0 20.81 0 20.4C0 19.99 0.34 19.65 0.75 19.65H20.75C21.16 19.65 21.5 19.99 21.5 20.4Z" fill="#4269F2"/>
</svg>
