<svg width="15" height="15" viewBox="0 0 15 15" fill="none" xmlns="http://www.w3.org/2000/svg">
<path d="M11.875 15H3.125C1.40188 15 0 13.5984 0 11.8756V6.07917C0 5.03874 0.515 4.07017 1.3775 3.48903L5.75188 0.537087C6.81375 -0.179029 8.18625 -0.179029 9.24813 0.537087L13.6231 3.48903C14.485 4.07017 15 5.03812 15 6.07917V11.8756C15 13.5984 13.5981 15 11.875 15ZM7.5 1.2507C7.135 1.2507 6.77 1.35818 6.45125 1.57377L2.07625 4.52509C1.55875 4.87377 1.25 5.45429 1.25 6.07855V11.875C1.25 12.9085 2.09125 13.7496 3.125 13.7496H11.875C12.9088 13.7496 13.75 12.9085 13.75 11.875V6.07917C13.75 5.45492 13.4413 4.87377 12.9244 4.52571L8.54875 1.57377C8.23 1.35818 7.865 1.2507 7.5 1.2507Z" fill="#436AF5"/>
</svg>
