<svg width="14" height="14" viewBox="0 0 14 14" fill="none" xmlns="http://www.w3.org/2000/svg">
<path d="M12.9523 0.677028C12.2867 0.121685 11.4158 -0.106402 10.5618 0.0464339L8.33233 0.451857C7.79975 0.549276 7.33717 0.821697 7 1.20379C6.66283 0.821697 6.20025 0.548692 5.66708 0.451857L3.43817 0.0470173C2.58592 -0.106402 1.71383 0.121685 1.04767 0.677028C0.3815 1.23295 0 2.04905 0 2.91648V10.3786C0 11.7885 1.00742 12.9955 2.39517 13.2481L6.06083 13.9148C6.37233 13.9714 6.68617 14 7 14C7.31383 14 7.62767 13.972 7.93917 13.9148L11.6054 13.2481C12.9932 12.9955 14 11.7885 14 10.3786V2.91648C14 2.04905 13.6179 1.23295 12.9523 0.677028ZM6.41667 12.7907C6.36767 12.7837 2.604 12.1001 2.604 12.1001C1.771 11.9484 1.16667 11.2245 1.16667 10.378V2.91648C1.16667 2.39614 1.39592 1.90672 1.7955 1.57304C2.11342 1.30762 2.50892 1.16645 2.91492 1.16645C3.01933 1.16645 3.12492 1.17579 3.22992 1.19504L5.45883 1.60046C6.01417 1.70138 6.41725 2.18439 6.41725 2.74848V12.7913L6.41667 12.7907ZM12.8333 10.3786C12.8333 11.225 12.229 11.949 11.3966 12.1006C11.3966 12.1006 7.63292 12.7837 7.58333 12.7913V2.7479C7.58333 2.1838 7.98642 1.70138 8.54117 1.59988L10.7701 1.19445C11.2822 1.10053 11.8043 1.23879 12.2045 1.57246C12.6041 1.90613 12.8333 2.39556 12.8333 2.9159V10.3786ZM5.24067 3.62991C5.18933 3.91167 4.94375 4.10884 4.66725 4.10884C4.63283 4.10884 2.81225 3.781 2.81225 3.781C2.4955 3.72325 2.28492 3.41991 2.34267 3.10257C2.40042 2.78581 2.70142 2.57698 3.02108 2.63298L4.77108 2.9509C5.08783 3.00865 5.29842 3.31257 5.24067 3.62991ZM5.24067 5.93703C5.18933 6.21879 4.94375 6.41596 4.66725 6.41596C4.63283 6.41596 2.81225 6.08812 2.81225 6.08812C2.4955 6.03037 2.28492 5.72703 2.34267 5.40969C2.40042 5.09294 2.70142 4.88293 3.02108 4.9401L4.77108 5.25802C5.08783 5.31577 5.29842 5.61969 5.24067 5.93703ZM5.24067 8.2704C5.18933 8.55216 4.94375 8.74933 4.66725 8.74933C4.63283 8.74933 2.81225 8.42149 2.81225 8.42149C2.4955 8.36374 2.28492 8.0604 2.34267 7.74306C2.40042 7.42631 2.70142 7.21689 3.02108 7.27347L4.77108 7.59139C5.08783 7.64914 5.29842 7.95307 5.24067 8.2704ZM11.6573 3.10373C11.7151 3.42049 11.5045 3.72441 11.1877 3.78216C11.1877 3.78216 9.36717 4.11 9.33275 4.11C9.05625 4.11 8.81067 3.91283 8.75933 3.63108C8.70158 3.31432 8.91217 3.0104 9.22892 2.95265L10.9789 2.63473C11.2945 2.57814 11.5996 2.78698 11.6573 3.10373ZM11.6573 5.41086C11.7151 5.72761 11.5045 6.03153 11.1877 6.08928C11.1877 6.08928 9.36717 6.41712 9.33275 6.41712C9.05625 6.41712 8.81067 6.21995 8.75933 5.9382C8.70158 5.62144 8.91217 5.31752 9.22892 5.25977L10.9789 4.94185C11.2945 4.88468 11.5996 5.0941 11.6573 5.41086ZM11.6573 7.74423C11.7151 8.06098 11.5045 8.36491 11.1877 8.42266C11.1877 8.42266 9.36717 8.7505 9.33275 8.7505C9.05625 8.7505 8.81067 8.55333 8.75933 8.27157C8.70158 7.95482 8.91217 7.65089 9.22892 7.59314L10.9789 7.27522C11.2945 7.21864 11.5996 7.42747 11.6573 7.74423ZM10.4907 10.2899C10.5484 10.6067 10.3378 10.9106 10.0211 10.9684C10.0211 10.9684 9.36717 11.0839 9.33275 11.0839C9.05625 11.0839 8.81067 10.8867 8.75933 10.6049C8.70158 10.2882 8.91217 9.98427 9.22892 9.92652L9.81225 9.82035C10.1325 9.76318 10.4329 9.97318 10.4907 10.2899ZM4.074 10.4189C4.02267 10.7006 3.77708 10.8978 3.50058 10.8978C3.46617 10.8978 2.81225 10.7823 2.81225 10.7823C2.4955 10.7245 2.28492 10.4212 2.34267 10.1039C2.40042 9.7871 2.70142 9.57534 3.02108 9.63426L3.60442 9.74043C3.92117 9.79818 4.13175 10.1015 4.074 10.4189Z" fill="#4269F2"/>
</svg>
