<svg width="13" height="13" viewBox="0 0 13 13" fill="none" xmlns="http://www.w3.org/2000/svg">
<path d="M5.4232 7.04421C5.48888 7.04409 5.55393 7.05697 5.6146 7.08212C5.67527 7.10726 5.73036 7.14417 5.7767 7.19071C6.55645 7.97046 7.8252 7.97071 8.6052 7.19071C8.65132 7.14296 8.7065 7.10487 8.7675 7.07866C8.8285 7.05246 8.89411 7.03866 8.9605 7.03809C9.02689 7.03751 9.09273 7.05016 9.15418 7.0753C9.21563 7.10044 9.27145 7.13757 9.3184 7.18451C9.36534 7.23146 9.40247 7.28729 9.42761 7.34874C9.45275 7.41018 9.4654 7.47602 9.46482 7.54241C9.46425 7.6088 9.45045 7.67441 9.42425 7.73541C9.39805 7.79642 9.35995 7.85159 9.3122 7.89771C8.14245 9.06771 6.2392 9.06746 5.0697 7.89771C4.99979 7.82779 4.95219 7.7387 4.93291 7.64173C4.91362 7.54475 4.92353 7.44424 4.96136 7.35289C4.9992 7.26154 5.06327 7.18345 5.14547 7.12851C5.22767 7.07357 5.32432 7.04423 5.4232 7.04421ZM5.7767 4.19196C6.54495 4.19196 7.3132 4.48446 7.89795 5.06921C7.9457 5.11534 7.9838 5.17051 8.01 5.23151C8.0362 5.29251 8.05 5.35812 8.05057 5.42451C8.05115 5.4909 8.0385 5.55674 8.01336 5.61819C7.98822 5.67964 7.95109 5.73546 7.90415 5.78241C7.8572 5.82936 7.80138 5.86648 7.73993 5.89162C7.67848 5.91676 7.61264 5.92942 7.54625 5.92884C7.47986 5.92826 7.41425 5.91447 7.35325 5.88826C7.29225 5.86206 7.23707 5.82397 7.19095 5.77621C6.4112 4.99646 5.14245 4.99621 4.36245 5.77621C4.31633 5.82397 4.26115 5.86206 4.20015 5.88826C4.13915 5.91447 4.07354 5.92826 4.00715 5.92884C3.94076 5.92942 3.87492 5.91676 3.81347 5.89162C3.75202 5.86648 3.6962 5.82936 3.64925 5.78241C3.6023 5.73546 3.56518 5.67964 3.54004 5.61819C3.5149 5.55674 3.50225 5.4909 3.50282 5.42451C3.5034 5.35812 3.51719 5.29251 3.5434 5.23151C3.5696 5.17051 3.60769 5.11534 3.65545 5.06921C3.93386 4.79053 4.26456 4.56957 4.62858 4.41903C4.99261 4.26849 5.38278 4.19132 5.7767 4.19196Z" fill="#91AAFF"/>
<path d="M4.00907 4.92321C4.10795 4.92323 4.20459 4.95256 4.2868 5.0075C4.369 5.06245 4.43307 5.14053 4.47091 5.23188C4.50874 5.32323 4.51865 5.42375 4.49936 5.52072C4.48008 5.6177 4.43248 5.70678 4.36257 5.77671L1.56957 8.56971C1.52345 8.61746 1.46828 8.65555 1.40727 8.68176C1.34627 8.70796 1.28066 8.72175 1.21427 8.72233C1.14788 8.72291 1.08204 8.71026 1.02059 8.68512C0.959146 8.65998 0.903319 8.62285 0.856374 8.5759C0.809427 8.52896 0.7723 8.47313 0.74716 8.41168C0.722019 8.35023 0.709369 8.28439 0.709946 8.218C0.710522 8.15161 0.724315 8.086 0.75052 8.025C0.776724 7.964 0.814816 7.90883 0.862571 7.86271L3.65557 5.06971C3.70191 5.02316 3.757 4.98625 3.81767 4.96111C3.87834 4.93597 3.9434 4.92308 4.00907 4.92321ZM8.21607 0.716206C8.31495 0.716227 8.4116 0.745563 8.4938 0.800505C8.57601 0.855447 8.64007 0.933529 8.67791 1.02488C8.71574 1.11623 8.72565 1.21675 8.70636 1.31372C8.68708 1.4107 8.63948 1.49978 8.56957 1.56971L7.00832 3.13096C6.9622 3.17871 6.90702 3.2168 6.84602 3.24301C6.78502 3.26921 6.71941 3.283 6.65302 3.28358C6.58663 3.28416 6.52079 3.27151 6.45934 3.24637C6.3979 3.22123 6.34207 3.1841 6.29512 3.13715C6.24818 3.09021 6.21105 3.03438 6.18591 2.97293C6.16077 2.91148 6.14812 2.84564 6.1487 2.77925C6.14927 2.71286 6.16307 2.64725 6.18927 2.58625C6.21547 2.52525 6.25357 2.47008 6.30132 2.42395L7.86257 0.862705C7.90891 0.816162 7.964 0.779254 8.02467 0.754109C8.08534 0.728965 8.1504 0.716083 8.21607 0.716206ZM11.7516 4.25171C11.8504 4.25173 11.9471 4.28106 12.0293 4.336C12.1115 4.39095 12.1756 4.46903 12.2134 4.56038C12.2512 4.65173 12.2611 4.75224 12.2419 4.84922C12.2226 4.9462 12.175 5.03528 12.1051 5.10521L9.31207 7.89795C9.26595 7.94571 9.21078 7.9838 9.14977 8.01001C9.08877 8.03621 9.02316 8.05 8.95677 8.05058C8.89038 8.05116 8.82454 8.03851 8.76309 8.01337C8.70165 7.98823 8.64582 7.9511 8.59887 7.90415C8.55193 7.85721 8.5148 7.80138 8.48966 7.73993C8.46452 7.67848 8.45187 7.61264 8.45245 7.54625C8.45302 7.47986 8.46682 7.41426 8.49302 7.35325C8.51922 7.29225 8.55732 7.23708 8.60507 7.19096L11.3981 4.39821C11.4958 4.30071 11.6238 4.25171 11.7516 4.25171ZM6.31282 9.69021C6.4117 9.69023 6.50834 9.71956 6.59055 9.7745C6.67275 9.82945 6.73682 9.90753 6.77466 9.99888C6.81249 10.0902 6.8224 10.1907 6.80311 10.2877C6.78383 10.3847 6.73623 10.4738 6.66632 10.5437L5.10507 12.1052C5.01128 12.199 4.88408 12.2517 4.75145 12.2517C4.61881 12.2517 4.49161 12.199 4.39782 12.1052C4.30403 12.0114 4.25134 11.8842 4.25134 11.7516C4.25134 11.6189 4.30403 11.4917 4.39782 11.398L5.95907 9.83646C6.05297 9.74278 6.18019 9.69018 6.31282 9.69021Z" fill="#91AAFF"/>
<path d="M9.98402 -9.53674e-07C10.7573 -9.53674e-07 11.5305 0.287499 12.1053 0.862499C13.2553 2.0125 13.2553 3.95525 12.1053 5.10525C12.0592 5.15301 12.004 5.1911 11.943 5.2173C11.882 5.24351 11.8164 5.2573 11.75 5.25788C11.6836 5.25845 11.6177 5.2458 11.5563 5.22066C11.4948 5.19552 11.439 5.1584 11.3921 5.11145C11.3451 5.0645 11.308 5.00868 11.2829 4.94723C11.2577 4.88578 11.2451 4.81994 11.2456 4.75355C11.2462 4.68716 11.26 4.62155 11.2862 4.56055C11.3124 4.49955 11.3505 4.44437 11.3983 4.39825C12.1648 3.63175 12.1648 2.33625 11.3983 1.56975C10.6318 0.80325 9.33627 0.80325 8.56977 1.56975C8.52365 1.61751 8.46848 1.6556 8.40748 1.6818C8.34647 1.708 8.28086 1.7218 8.21447 1.72238C8.14808 1.72295 8.08224 1.7103 8.0208 1.68516C7.95935 1.66002 7.90352 1.62289 7.85658 1.57595C7.80963 1.529 7.7725 1.47318 7.74736 1.41173C7.72222 1.35028 7.70957 1.28444 7.71015 1.21805C7.71073 1.15166 7.72452 1.08605 7.75072 1.02505C7.77693 0.964046 7.81502 0.908873 7.86277 0.862749C8.43752 0.287499 9.21077 -9.53674e-07 9.98402 -9.53674e-07ZM1.21627 7.716C1.31515 7.71602 1.4118 7.74536 1.494 7.8003C1.57621 7.85524 1.64028 7.93332 1.67811 8.02467C1.71595 8.11602 1.72585 8.21654 1.70656 8.31352C1.68728 8.41049 1.63968 8.49958 1.56977 8.5695C0.803272 9.336 0.803272 10.6315 1.56977 11.398C2.33627 12.1645 3.63177 12.1645 4.39827 11.398C4.4444 11.3502 4.49957 11.3122 4.56057 11.286C4.62157 11.2597 4.68718 11.246 4.75357 11.2454C4.81996 11.2448 4.8858 11.2575 4.94725 11.2826C5.0087 11.3077 5.06452 11.3449 5.11147 11.3918C5.15842 11.4388 5.19554 11.4946 5.22068 11.556C5.24582 11.6175 5.25848 11.6833 5.2579 11.7497C5.25732 11.8161 5.24353 11.8817 5.21732 11.9427C5.19112 12.0037 5.15303 12.0589 5.10527 12.105C3.95527 13.255 2.01252 13.255 0.862523 12.105C-0.287477 10.955 -0.287477 9.01225 0.862523 7.86225C0.960273 7.76475 1.08827 7.716 1.21627 7.716Z" fill="#91AAFF"/>
</svg>
