<svg width="195" height="199" viewBox="0 0 195 199" fill="none" xmlns="http://www.w3.org/2000/svg">
<path fill-rule="evenodd" clip-rule="evenodd" d="M97.9561 0.256576C75.7744 2.42403 56.0259 23.5207 51.435 49.9535C50.248 56.7866 50.6273 68.9897 52.2241 75.3534C54.5746 84.7185 61.0383 95.2843 67.5248 100.363C72.2269 104.045 75.7225 105.735 84.5706 108.605C94.6433 111.872 98.8078 112.631 104.472 112.232C115.724 111.439 126.221 106.339 135.186 97.31C147.094 85.317 153.624 69.2294 153.657 51.8056C153.695 31.827 145.129 15.524 130.581 7.88604C126.271 5.62334 111.336 0.767777 107.61 0.417999C106.153 0.281475 104.247 0.105269 103.373 0.0264236C102.499 -0.0524218 100.061 0.0512607 97.9561 0.256576ZM94.8986 1.53343C91.099 2.2478 88.9301 2.94896 84.3238 4.95025C82.228 5.86094 81.8509 6.2049 82.4701 6.64252C83.0908 7.08119 83.0458 7.12568 82.2434 6.86427C80.7382 6.37321 74.962 10.3519 69.9935 15.3028C63.489 21.7829 58.0422 30.5248 55.1546 39.1184C50.4646 53.0777 50.3799 68.3271 54.9242 80.5238C59.8287 93.6857 68.7324 102.513 81.128 106.5C85.077 107.771 98.0277 107.688 102.313 106.365C114.419 102.627 124.928 94.1693 132.629 81.9663C139.32 71.3613 143.002 55.4531 141.766 42.4891C141.061 35.0999 138.565 25.7697 137.472 26.4438C137.222 26.5989 137.149 26.3798 137.312 25.9575C137.664 25.0394 135.693 21.0564 133.096 17.4391C123.905 4.63597 109.75 -1.25791 94.8986 1.53343ZM94.6338 10.0652C93.9055 10.1996 91.8796 10.8224 90.1318 11.4489C75.8433 16.5744 64.7919 29.4077 60.3933 45.9848C59.1719 50.5869 58.9849 52.3448 58.9606 59.4785C58.9288 68.5605 59.5088 71.6646 62.4684 78.2638C67.0481 88.4751 74.3947 95.0997 84.507 98.1365C87.8565 99.1425 89.1832 99.2663 93.7757 99.0011C96.7236 98.8308 100.327 98.3185 101.784 97.8624C121.685 91.631 135.897 69.6135 134.717 46.8431C134.329 39.3639 133.374 35.2512 130.716 29.631C126.667 21.0659 120.718 15.1853 112.641 11.7627C109.016 10.2266 108.114 10.0683 102.313 9.95031C98.8179 9.8794 95.362 9.93128 94.6338 10.0652ZM93.0448 12.1675C88.7246 13.3137 82.299 16.4701 82.7619 17.2184C82.9891 17.5851 82.9166 17.6968 82.5855 17.4925C81.7307 16.9644 75.7961 21.6787 72.8259 25.2448C51.4482 50.9097 58.4765 90.0419 85.6638 96.7237C92.1979 98.3297 99.526 97.4793 106.39 94.3186C131.221 82.8834 141.341 46.7367 125.963 24.4055C121.936 18.5577 115.322 13.8719 108.642 12.1331C104.757 11.1224 96.9175 11.1394 93.0448 12.1675ZM134.886 17.1009C134.886 17.2999 135.095 17.6888 135.35 17.9656C136.315 19.0096 138.478 23.3821 140.056 27.4773C143.052 35.2502 144.343 45.589 143.359 53.9222C143.015 56.8326 142.696 59.6838 142.65 60.2585C142.58 61.1289 143.295 61.5189 146.935 62.5958C149.338 63.307 151.453 63.7398 151.635 63.5583C151.817 63.3763 152.222 60.3506 152.535 56.8343C153.688 43.8703 150.853 31.2989 144.739 22.2624C142.652 19.1795 142.413 19.0054 138.726 17.8952C136.614 17.2591 134.886 16.902 134.886 17.1009ZM65.2728 21.7528C64.9857 22.5069 65.0461 22.5677 65.5694 22.0491C65.9317 21.6898 66.0942 21.2628 65.9311 21.1003C65.7679 20.9374 65.4719 21.2311 65.2728 21.7528ZM180.7 38.2511C172.091 43.6327 163.619 63.8806 162.611 81.4843C162.223 88.2401 162.992 93.5042 164.75 96.1378C166.328 98.5016 172.35 100.592 175.159 99.7515C180.786 98.0672 187.375 88.2115 191.471 75.3534C194.425 66.0819 195 62.5476 195 53.6577C195 46.4499 194.865 45.1656 193.891 43.0633C192.39 39.8211 191.51 39.0565 188.165 38.0849C184.426 36.9986 182.639 37.0382 180.7 38.2511ZM181.229 39.3073C171.897 45.1318 162.521 70.8438 163.669 87.4659C164.424 98.4048 169.314 100.489 175.725 92.6041C184.008 82.4166 190.538 59.8822 188.915 47.0881C187.939 39.4014 185.323 36.7525 181.229 39.3073ZM188.646 40.9609C189.099 41.8356 189.709 44.4613 190.002 46.7954C191.41 58.0127 186.752 77.2139 179.849 88.6481C177.547 92.4618 173.765 96.9094 172.476 97.3184C171.107 97.7524 171.146 98.4387 172.559 98.808C175.545 99.588 180.208 95.7849 184.069 89.4185C193.574 73.7505 197.485 46.5674 191.06 40.8323C190.159 40.028 189.062 39.3702 188.623 39.3702C187.914 39.3702 187.917 39.5528 188.646 40.9609ZM5.91953 63.6292C3.54411 65.0823 0.516189 68.6685 0.112076 70.5073C-0.656428 74.0024 2.60719 82.3097 7.45019 89.1873C13.9965 98.4836 24.4463 107.986 32.6901 112.14C36.6094 114.115 41.8729 115.337 43.6265 114.681C45.3913 114.02 50.1082 109.283 50.4811 107.798C52.687 99.017 38.0728 78.5231 22.1471 68.0641C17.5461 65.0426 11.8398 62.6826 9.09735 62.6667C8.22345 62.6614 6.79343 63.0948 5.91953 63.6292ZM6.8623 64.2515C4.21146 65.3173 4.57373 70.8777 7.70654 77.1938C10.744 83.3178 15.4053 89.472 21.7435 95.7262C27.9042 101.805 32.6228 105.324 38.0923 107.915C43.3267 110.396 46.2234 110.758 48.2233 109.182C49.6718 108.04 49.7317 107.828 49.4563 104.796C49.0845 100.698 45.6492 93.7159 40.9582 87.5241C33.502 77.6822 21.0243 67.3588 13.5294 64.8299C9.95803 63.625 8.69431 63.5149 6.8623 64.2515ZM2.21472 68.6605C-1.37675 74.1369 5.80987 87.9184 18.6816 100.24C29.7023 110.789 41.2426 116.231 44.8828 112.595L46.0072 111.471L43.6461 111.118C36.1395 109.993 22.619 99.9219 14.0876 89.1005C8.51422 82.0309 4.13892 73.9146 4.02875 70.4385C4.0081 69.7951 3.80842 68.8007 3.58491 68.2292C3.20463 67.2577 3.11669 67.2858 2.21472 68.6605ZM136.784 76.8699C134.064 82.8082 131.241 87.1643 126.913 92.1062C125.469 93.7545 124.363 95.179 124.455 95.2711C124.548 95.3632 126.562 95.9997 128.933 96.6855L133.242 97.9322L135.875 95.242C139.393 91.6468 144.07 84.7873 143.319 84.3238C142.975 84.1116 143.192 83.8491 143.854 83.6761C144.614 83.4771 145.549 82.1071 146.812 79.3401C147.826 77.115 148.657 74.9793 148.657 74.593C148.657 74.2072 147.644 73.6283 146.406 73.3065C145.167 72.9848 143.077 72.389 141.759 71.9821L139.363 71.2429L136.784 76.8699ZM138.497 82.877C138.78 83.1591 139.453 83.2966 139.994 83.1818C140.722 83.0278 140.589 82.8945 139.48 82.669C138.514 82.4717 138.166 82.5458 138.497 82.877ZM80.0687 123.856C47.647 126.806 24.5548 135.606 19.384 146.983C18.5058 148.915 18.3882 150.567 18.3829 161.078C18.3766 172.443 18.4322 173.105 19.6101 175.631C24.1899 185.457 43.8325 193.819 70.5353 197.309C78.4035 198.338 96.6236 199.267 102.313 198.929C104.644 198.791 109.172 198.538 112.377 198.366C137.425 197.023 161.6 189.709 170.899 180.66C175.393 176.285 175.628 175.35 175.749 161.293C175.837 151.125 175.715 148.853 174.996 147.193C172.899 142.357 168.122 138.362 159.63 134.343C156.674 132.943 154.275 131.425 153.616 130.533C152.116 128.506 147.963 126.349 143.003 125.019C139.069 123.965 137.419 123.903 110.523 123.786C94.9383 123.718 81.2339 123.75 80.0687 123.856ZM79.1106 125.142C56.9601 126.968 36.0834 132.987 26.5992 140.283C6.92586 155.415 30.3056 172.658 77.1557 177.57C86.5345 178.553 110.255 178.393 119.792 177.282C146.296 174.193 166.169 166.788 172.641 157.587C176.41 152.229 174.674 145.703 168.129 140.63C165.518 138.605 156.035 133.422 155.648 133.808C155.555 133.901 156.566 137.658 157.894 142.158C159.222 146.657 160.309 150.972 160.309 151.746C160.309 152.519 159.803 154.226 159.186 155.538C153.663 167.276 121.449 175.566 88.3481 173.767C63.9773 172.442 44.9877 166.824 37.5193 158.729C34.8838 155.872 34.2551 154.429 34.2551 151.233C34.2551 146.45 38.1072 141.982 45.3775 138.334C55.5709 133.219 67.0132 130.62 86.2093 129.061C91.6477 128.619 97.7088 127.771 100.989 126.993C104.048 126.267 107.146 125.659 107.875 125.641C108.603 125.623 109.556 125.377 109.993 125.095C110.962 124.469 86.8274 124.506 79.1106 125.142ZM119.171 125.106C112.793 125.724 105.899 126.927 98.0679 128.788C91.8965 130.254 79.5275 134.021 79.8898 134.323C80.3776 134.73 94.9674 133.023 99.1357 132.07C110.669 129.436 123.152 128.605 131.216 129.936C136.088 130.74 141.137 133.278 142.491 135.604C148.613 146.123 126.685 162.254 94.5135 170.898L88.0133 172.644L94.209 172.682C101.302 172.725 103.826 172.086 116.285 167.093C139.363 157.846 155.238 144.775 154.369 135.737C154.233 134.321 153.62 132.464 153.005 131.6C151.491 129.477 146.581 126.984 141.811 125.919C137.078 124.861 125.858 124.458 119.171 125.106ZM114.76 131.873C114.76 134.213 115.776 134.942 120.056 135.671C122.241 136.044 125.928 136.899 128.249 137.572C130.571 138.246 132.526 138.742 132.593 138.675C132.66 138.608 132.464 136.863 132.157 134.799L131.6 131.045L129.197 130.715C127.875 130.535 124.086 130.386 120.777 130.386H114.76V131.873ZM84.041 135.155C60.5818 137.6 45.4495 145.035 47.2508 153.228C47.4611 154.186 48.6671 155.938 50.0727 157.328C56.0576 163.246 70.12 167.342 88.5429 168.534C96.8609 169.072 97.095 169.058 101.254 167.761L105.491 166.439L97.1675 166.404C70.6449 166.293 51.9429 158.224 56.7377 148.959C60.3328 142.013 76.4312 137.266 96.3874 137.266C109.443 137.266 117.989 138.611 127.004 142.084C130.327 143.364 132.019 144.407 134.203 146.521L137.059 149.284L139 146.917L140.94 144.551L139.772 143.605C136.561 141.008 125.109 137.427 115.29 135.951C108.687 134.958 90.4004 134.492 84.041 135.155ZM52.4826 136.401C50.7099 137.06 48.0882 138.178 46.6566 138.887L44.0534 140.176L43.9083 149.365C43.778 157.622 43.8495 158.522 44.6138 158.229C45.0814 158.049 45.5639 157.903 45.6858 157.903C45.8076 157.903 45.9071 156.229 45.9071 154.182C45.9071 152.135 46.2297 149.695 46.6232 148.758C47.4611 146.767 51.1474 143.27 53.9841 141.776C55.8956 140.768 55.9702 140.624 55.9702 137.939C55.9702 136.405 55.9109 135.161 55.8378 135.176C55.7647 135.192 54.2553 135.743 52.4826 136.401ZM92.5152 144.674V151.024H95.7343C104.88 151.024 118.203 153.131 124.434 155.565C126.821 156.496 127.038 156.501 128.407 155.652C129.203 155.159 129.798 154.519 129.729 154.231C129.659 153.943 129.899 153.821 130.26 153.96C130.621 154.098 132.06 153.269 133.455 152.116L135.993 150.021L134.144 147.976C129.038 142.33 114.455 138.358 98.7384 138.333L92.5152 138.324V144.674ZM81.128 139.231C79.3807 139.472 73.7809 140.707 70.6677 141.538L68.6815 142.069V148.72C68.6815 154.843 68.7551 155.341 69.6084 154.996C70.1184 154.79 73.3355 154.001 76.7585 153.243L82.9817 151.864V145.359C82.9817 141.78 82.9219 138.888 82.8493 138.932C82.7768 138.976 82.0019 139.11 81.128 139.231ZM155.012 139.685C155.012 142.608 147.595 150.843 140.688 155.589C132.61 161.139 119.349 167.602 108.669 171.193C103.7 172.864 105.529 173.063 115.435 171.93C139.986 169.12 156.807 161.789 159.02 152.933C159.287 151.862 158.867 149.519 157.617 145.128C156.011 139.48 155.012 137.394 155.012 139.685ZM88.1447 152.669C80.8002 153.233 71.9875 155.228 67.3294 157.382L63.65 159.083L66.4073 160.325C69.574 161.75 73.9816 162.955 80.0592 164.057C85.8894 165.114 100.667 165.56 106.74 164.862C111.141 164.358 112.461 163.926 118.525 161.01C122.28 159.205 125.353 157.558 125.353 157.352C125.353 156.851 119.122 154.914 114.416 153.952C110.574 153.166 98.4895 152.02 95.4838 152.157C94.5792 152.197 91.2769 152.428 88.1447 152.669ZM46.9664 160.201V164.176L51.0711 165.751C54.8977 167.219 65.8337 170.105 70.4389 170.861C72.4574 171.193 72.4605 171.19 72.2927 169.482C72.1327 167.854 71.9679 167.735 68.9464 167.06C60.7857 165.238 53.5615 162.039 49.4822 158.443L46.9664 156.225V160.201ZM19.447 164.517C19.4364 171.751 19.5461 172.691 20.6795 175.124C25.2894 185.015 45.3992 193.164 73.7131 196.615C82.9611 197.743 113.637 197.578 122.705 196.353C138.956 194.156 151.171 190.878 160.591 186.186C166.887 183.049 171.013 179.761 173.004 176.292C174.597 173.517 174.599 173.503 174.588 165.047C174.58 159.014 174.421 156.847 174.034 157.51C173.736 158.022 173.661 158.714 173.868 159.047C174.077 159.386 174.011 159.51 173.718 159.33C173.03 158.905 169.167 162.861 169.699 163.445C169.923 163.691 169.811 163.723 169.448 163.515C169.076 163.301 168.019 163.723 167.022 164.483C164.495 166.409 154.996 170.771 149.716 172.431C127.699 179.354 95.8773 181.423 68.9464 177.685C44.671 174.314 27.1643 167.246 20.6058 158.167L19.4586 156.58L19.447 164.517ZM43.8299 160.067L42.0175 161.173L43.7197 162.25C44.6561 162.842 45.547 163.201 45.6995 163.049C45.8526 162.897 45.9019 161.914 45.8097 160.867L45.6423 158.962L43.8299 160.067Z" fill="#436AF5"/>
<path fill-rule="evenodd" clip-rule="evenodd" d="M100.261 32.0525L99.9699 32.3012L99.433 35.151L98.896 38.0009L97.3666 38.211C95.6976 38.4404 95.4195 38.5379 95.1472 38.9894C95.0358 39.1742 94.6925 40.9392 93.7891 45.9726L92.5801 52.7084L92.7903 52.9621L93.0003 53.2158L94.6214 53.0201L96.2424 52.8244L95.8048 55.2626C95.3404 57.8499 95.3322 58.0893 95.7024 58.249C95.9034 58.3358 96.3683 58.2719 96.6114 58.1241C97.0591 57.852 97.1386 57.6028 97.603 55.0152L98.0407 52.5769L99.7615 52.3136L101.482 52.0502L101.797 51.7245L102.111 51.3987L103.321 44.6544C104.654 37.229 104.625 37.5009 104.09 37.383C103.933 37.3486 103.172 37.4132 102.265 37.5379L100.709 37.7518L101.193 34.9091L101.678 32.0664L101.464 31.8871C101.174 31.6439 100.655 31.7153 100.261 32.0525ZM84.6304 41.1793C84.1835 41.4678 84.1267 41.6645 83.5287 44.9964L82.9627 48.1498L81.4763 48.354C79.8032 48.5839 79.4555 48.7078 79.1417 49.1859C78.9711 49.4457 78.8216 50.2087 77.7647 56.2147L76.5789 62.952L76.7838 63.1638L76.9888 63.3754L78.6433 63.1751L80.2977 62.9746L79.3932 68.1478L78.4887 73.321L78.6598 73.5133C78.879 73.76 79.1776 73.792 79.5866 73.6131C80.2087 73.341 80.1698 73.4818 81.1859 67.8209L82.1021 62.716L83.6698 62.5006C85.3154 62.2745 85.5703 62.1993 85.9355 61.8322C86.1591 61.6073 86.1632 61.5878 87.3792 54.8131C88.4807 48.6758 88.5879 48.0014 88.4889 47.833C88.2859 47.4876 87.9418 47.4655 86.2923 47.6922L84.761 47.9026L85.3408 44.6718L85.9208 41.4409L85.7369 41.2001C85.5851 41.0009 85.4882 40.9685 85.1786 41.0132C84.9725 41.043 84.7258 41.1177 84.6304 41.1793ZM95.5957 45.6784L94.5848 51.311L97.5518 50.9033L100.519 50.4955L101.53 44.8629L102.541 39.2303L99.5738 39.638L96.6067 40.0457L95.5957 45.6784ZM112.645 42.507L112.335 42.8024L111.579 47.0172L110.822 51.2321L109.101 51.4954L107.381 51.7587L107.066 52.0845L106.752 52.4102L105.535 59.1931L104.317 65.9761L104.528 66.2297L104.738 66.4834L106.449 66.2752L108.16 66.0669L107.745 68.3747L107.331 70.6824L107.547 70.9055C107.784 71.1494 108.126 71.1527 108.563 70.9154C109.058 70.647 109.128 70.4445 109.561 68.0311L109.96 65.8091L111.493 65.5984C113.191 65.365 113.455 65.2689 113.787 64.7638C113.95 64.5159 114.117 63.6597 115.158 57.7441L116.344 51.0068L116.139 50.795L115.934 50.5834L114.277 50.784L112.621 50.9847L113.359 46.8697C114.152 42.4501 114.157 42.3971 113.741 42.2267C113.375 42.0765 112.993 42.174 112.645 42.507ZM80.6257 50.2589C80.5869 50.2959 80.105 52.8343 79.5547 55.8998L78.5544 61.4732L81.5664 61.0593L84.5784 60.6454L85.5894 55.0128L86.6004 49.3802L83.6484 49.7858C82.0246 50.009 80.6644 50.2218 80.6257 50.2589ZM107.333 58.946L106.322 64.581L109.315 64.1468L112.309 63.7127L113.312 58.1244L114.315 52.5361L111.33 52.9236L108.344 53.311L107.333 58.946Z" fill="#436AF5"/>
<path d="M103.044 38.2087L96.4914 39.4608L94.9356 40.9028L94.0184 51.8759L99.5144 52.0847L101.589 50.162L103.044 38.2087Z" fill="#436AF5"/>
</svg>
