<svg width="21" height="19" viewBox="0 0 21 19" fill="none" xmlns="http://www.w3.org/2000/svg">
<path d="M5 7.46373C5.46 7.46373 5.83333 7.82946 5.83333 8.28192V10.7365C5.83333 11.1889 5.46 11.5546 5 11.5546C4.54 11.5546 4.16667 11.1889 4.16667 10.7365V8.28192C4.16667 7.82946 4.54 7.46373 5 7.46373ZM7.5 5.00919V10.7365C7.5 11.1889 7.87333 11.5546 8.33333 11.5546C8.79333 11.5546 9.16667 11.1889 9.16667 10.7365V5.00919C9.16667 4.55673 8.79333 4.19101 8.33333 4.19101C7.87333 4.19101 7.5 4.55673 7.5 5.00919ZM10.8333 7.46373V10.7365C10.8333 11.1889 11.2058 11.5546 11.6667 11.5546C12.1275 11.5546 12.5 11.1889 12.5 10.7365V7.46373C12.5 7.01128 12.1275 6.64555 11.6667 6.64555C11.2058 6.64555 10.8333 7.01128 10.8333 7.46373ZM19.1667 9.1001C18.7058 9.1001 18.3333 9.46583 18.3333 9.91828V10.7365C18.3333 12.0897 17.2117 13.191 15.8333 13.191H4.16667C2.78833 13.191 1.66667 12.0897 1.66667 10.7365V4.19101C1.66667 2.83773 2.78833 1.73646 4.16667 1.73646H10.8333C11.2942 1.73646 11.6667 1.37073 11.6667 0.918279C11.6667 0.465825 11.2942 0.100098 10.8333 0.100098H4.16667C1.86917 0.100098 0 1.93528 0 4.19101V10.7365C0 12.9922 1.86917 14.8274 4.16667 14.8274H9.16667V16.4637H5.83333C5.37333 16.4637 5 16.8295 5 17.2819C5 17.7344 5.37333 18.1001 5.83333 18.1001H14.1667C14.6275 18.1001 15 17.7344 15 17.2819C15 16.8295 14.6275 16.4637 14.1667 16.4637H10.8333V14.8274H15.8333C18.1308 14.8274 20 12.9922 20 10.7365V9.91828C20 9.46583 19.6275 9.1001 19.1667 9.1001Z" fill="#4269F2"/>
<path d="M20 2.724C20 2.93017 19.825 3.09885 19.6111 3.09885H18.4328C18.3317 4.56074 17.0678 5.72275 15.5278 5.72275H14.4778L17.9117 8.43288C18.0789 8.56407 18.1022 8.80022 17.9661 8.96141C17.8883 9.05137 17.7756 9.1001 17.6628 9.1001C17.5772 9.1001 17.4878 9.07386 17.4178 9.01388L13.1439 5.63654C13.0156 5.53533 12.9689 5.3704 13.0233 5.22046C13.0778 5.07053 13.2256 4.97307 13.3889 4.97307H15.5278C16.64 4.97307 17.5578 4.14841 17.655 3.09885H13.3889C13.175 3.09885 13 2.93017 13 2.724C13 2.51784 13.175 2.34916 13.3889 2.34916H17.585C17.3283 1.48702 16.5078 0.849785 15.5278 0.849785H13.3889C13.175 0.849785 13 0.681106 13 0.474941C13 0.268777 13.175 0.100098 13.3889 0.100098H19.6111C19.825 0.100098 20 0.268777 20 0.474941C20 0.681106 19.825 0.849785 19.6111 0.849785H17.5072C17.9467 1.24337 18.2578 1.7644 18.3822 2.34916H19.6072C19.8211 2.34916 19.9961 2.51784 19.9961 2.724H20Z" fill="#4269F2" stroke="#4269F2" stroke-width="0.2"/>
</svg>
