<svg width="10" height="10" viewBox="0 0 10 10" fill="none" xmlns="http://www.w3.org/2000/svg">
<g clip-path="url(#clip0_3_9419)">
<path d="M6.87062 2.05542H2.80469C2.7301 2.05542 2.65856 2.08505 2.60581 2.1378C2.55307 2.19054 2.52344 2.26208 2.52344 2.33667C2.52344 2.41126 2.55307 2.4828 2.60581 2.53554C2.65856 2.58829 2.7301 2.61792 2.80469 2.61792H6.87094C6.94553 2.61788 7.01705 2.58821 7.06977 2.53543C7.12248 2.48266 7.15207 2.41111 7.15203 2.33651C7.15199 2.26192 7.12232 2.1904 7.06954 2.13769C7.01677 2.08497 6.94522 2.05538 6.87062 2.05542ZM7.15187 3.92229C7.15187 3.8477 7.12224 3.77617 7.0695 3.72342C7.01675 3.67068 6.94522 3.64104 6.87062 3.64104H2.80469C2.7301 3.64104 2.65856 3.67068 2.60581 3.72342C2.55307 3.77617 2.52344 3.8477 2.52344 3.92229C2.52344 3.99689 2.55307 4.06842 2.60581 4.12117C2.65856 4.17391 2.7301 4.20354 2.80469 4.20354H6.87094C6.94548 4.20346 7.01693 4.17379 7.06961 4.12106C7.12229 4.06832 7.15187 3.99683 7.15187 3.92229ZM2.80469 5.22698C2.7301 5.22698 2.65856 5.25661 2.60581 5.30936C2.55307 5.3621 2.52344 5.43364 2.52344 5.50823C2.52344 5.58282 2.55307 5.65436 2.60581 5.70711C2.65856 5.75985 2.7301 5.78948 2.80469 5.78948H4.85281C4.9274 5.78948 4.99894 5.75985 5.05169 5.70711C5.10443 5.65436 5.13406 5.58282 5.13406 5.50823C5.13406 5.43364 5.10443 5.3621 5.05169 5.30936C4.99894 5.25661 4.9274 5.22698 4.85281 5.22698H2.80469Z" fill="black"/>
<path d="M3.53518 9.09375H1.79486C1.67954 9.09359 1.569 9.0477 1.48745 8.96616C1.40591 8.88462 1.36003 8.77407 1.35986 8.65875V1.34125C1.35986 1.10125 1.55518 0.90625 1.79486 0.90625H7.88111C8.1208 0.90625 8.31611 1.10156 8.31611 1.34125V4.01156C8.31611 4.08615 8.34575 4.15769 8.39849 4.21044C8.45123 4.26318 8.52277 4.29281 8.59736 4.29281C8.67196 4.29281 8.74349 4.26318 8.79624 4.21044C8.84898 4.15769 8.87861 4.08615 8.87861 4.01156V1.34125C8.87837 1.07683 8.77323 0.8233 8.58629 0.636295C8.39934 0.449291 8.14585 0.344081 7.88143 0.34375H1.79486C1.53041 0.344081 1.27689 0.44928 1.08989 0.636276C0.902894 0.823272 0.797694 1.0768 0.797363 1.34125V8.65875C0.797694 8.9232 0.902894 9.17673 1.08989 9.36372C1.27689 9.55072 1.53041 9.65592 1.79486 9.65625H3.53518C3.60977 9.65625 3.6813 9.62662 3.73405 9.57387C3.78679 9.52113 3.81643 9.44959 3.81643 9.375C3.81643 9.30041 3.78679 9.22887 3.73405 9.17613C3.6813 9.12338 3.60977 9.09375 3.53518 9.09375Z" fill="black"/>
<path d="M8.89589 5.28554C8.69944 5.08941 8.43318 4.97925 8.15558 4.97925C7.87798 4.97925 7.61172 5.08941 7.41527 5.28554L4.82933 7.87148C4.74771 7.9528 4.69353 8.05757 4.67433 8.17117L4.53308 9.0096C4.51841 9.09675 4.52479 9.18614 4.55168 9.27032C4.57857 9.3545 4.6252 9.43103 4.68767 9.49353C4.75014 9.55603 4.82665 9.6027 4.91082 9.62963C4.99498 9.65656 5.08437 9.66298 5.17152 9.64836L6.00933 9.50679C6.12371 9.48773 6.22777 9.43429 6.30964 9.3521L8.89558 6.76617C9.09168 6.56971 9.20185 6.3035 9.2019 6.02592C9.20196 5.74834 9.09191 5.48208 8.89589 5.28554ZM5.91652 8.9521L5.08777 9.10304L5.22683 8.26898L7.08777 6.40804L7.77339 7.09367L5.91652 8.9521ZM8.49808 6.36836L8.17089 6.69586L7.48527 6.01023L7.81277 5.68273C7.90714 5.58836 8.03152 5.54117 8.15558 5.54117C8.25144 5.54111 8.34517 5.56949 8.42489 5.62273C8.50461 5.67597 8.56674 5.75167 8.60341 5.84024C8.64009 5.92881 8.64965 6.02627 8.6309 6.12029C8.61215 6.2143 8.56593 6.30063 8.49808 6.36836Z" fill="black"/>
</g>
<defs>
<clipPath id="clip0_3_9419">
<rect width="10" height="10" fill="white"/>
</clipPath>
</defs>
</svg>
