<svg width="11" height="11" viewBox="0 0 11 11" fill="none" xmlns="http://www.w3.org/2000/svg">
<path d="M2.29329 4.12113C1.88987 4.12113 1.48646 3.9699 1.18389 3.66285L0.13409 2.61796C-0.0446968 2.43922 -0.0446968 2.15051 0.13409 1.97177C0.312878 1.79304 0.601688 1.79304 0.780475 1.97177L1.82569 3.01666C2.08241 3.2733 2.495 3.2733 2.75172 3.01666L4.38373 1.38517C4.99802 0.771066 5.99281 0.771066 6.60711 1.38517L7.32225 2.10009C7.56981 2.34757 8.00073 2.34757 8.24828 2.10009L10.2195 0.134049C10.3983 -0.0446828 10.6871 -0.0446828 10.8659 0.134049C11.0447 0.31278 11.0447 0.6015 10.8659 0.780231L8.90383 2.74169C8.31246 3.33288 7.27641 3.33288 6.68045 2.74169L5.96531 2.02677C5.70858 1.77013 5.296 1.77013 5.03928 2.02677L3.40727 3.65826C3.10012 3.96532 2.69671 4.11655 2.29787 4.11655L2.29329 4.12113ZM3.66858 10.5417V6.41714C3.66858 6.16509 3.46228 5.95886 3.21015 5.95886C2.95801 5.95886 2.75172 6.16509 2.75172 6.41714V10.5417C2.75172 10.7938 2.95801 11 3.21015 11C3.46228 11 3.66858 10.7938 3.66858 10.5417ZM1.37643 10.5417V5.50057C1.37643 5.24852 1.17014 5.04229 0.918004 5.04229C0.665868 5.04229 0.459575 5.24852 0.459575 5.50057V10.5417C0.459575 10.7938 0.665868 11 0.918004 11C1.17014 11 1.37643 10.7938 1.37643 10.5417ZM5.96072 10.5417V4.12572C5.96072 3.87366 5.75443 3.66743 5.50229 3.66743C5.25016 3.66743 5.04386 3.87366 5.04386 4.12572V10.5417C5.04386 10.7938 5.25016 11 5.50229 11C5.75443 11 5.96072 10.7938 5.96072 10.5417ZM8.25286 10.5417V5.50057C8.25286 5.24852 8.04657 5.04229 7.79444 5.04229C7.5423 5.04229 7.33601 5.24852 7.33601 5.50057V10.5417C7.33601 10.7938 7.5423 11 7.79444 11C8.04657 11 8.25286 10.7938 8.25286 10.5417ZM10.545 10.5417V3.66743C10.545 3.41537 10.3387 3.20914 10.0866 3.20914C9.83444 3.20914 9.62815 3.41537 9.62815 3.66743V10.5417C9.62815 10.7938 9.83444 11 10.0866 11C10.3387 11 10.545 10.7938 10.545 10.5417Z" fill="#5D6975"/>
</svg>
