<svg width="12" height="12" viewBox="0 0 12 12" fill="none" xmlns="http://www.w3.org/2000/svg">
<g clip-path="url(#clip0_3_9426)">
<path d="M0 11.6H12V12H0V11.6ZM0.8 11.2H2.8C2.85304 11.2 2.90391 11.1789 2.94142 11.1414C2.97893 11.1039 3 11.053 3 11V7.4C3 7.34696 2.97893 7.29609 2.94142 7.25858C2.90391 7.22107 2.85304 7.2 2.8 7.2H0.8C0.746957 7.2 0.696086 7.22107 0.658579 7.25858C0.621071 7.29609 0.6 7.34696 0.6 7.4V11C0.6 11.053 0.621071 11.1039 0.658579 11.1414C0.696086 11.1789 0.746957 11.2 0.8 11.2ZM1 7.6H2.6V10.8H1V7.6ZM6.4 11.2H8.4C8.45304 11.2 8.50391 11.1789 8.54142 11.1414C8.57893 11.1039 8.6 11.053 8.6 11V5C8.6 4.94696 8.57893 4.89609 8.54142 4.85858C8.50391 4.82107 8.45304 4.8 8.4 4.8H6.4C6.34696 4.8 6.29609 4.82107 6.25858 4.85858C6.22107 4.89609 6.2 4.94696 6.2 5V11C6.2 11.053 6.22107 11.1039 6.25858 11.1414C6.29609 11.1789 6.34696 11.2 6.4 11.2ZM6.6 5.2H8.2V10.8H6.6V5.2ZM3.6 11.2H5.6C5.65304 11.2 5.70391 11.1789 5.74142 11.1414C5.77893 11.1039 5.8 11.053 5.8 11V2.6C5.8 2.54696 5.77893 2.49609 5.74142 2.45858C5.70391 2.42107 5.65304 2.4 5.6 2.4H3.6C3.54696 2.4 3.49609 2.42107 3.45858 2.45858C3.42107 2.49609 3.4 2.54696 3.4 2.6V11C3.4 11.053 3.42107 11.1039 3.45858 11.1414C3.49609 11.1789 3.54696 11.2 3.6 11.2ZM3.8 2.8H5.4V10.8H3.8V2.8ZM9.2 11.2H11.2C11.253 11.2 11.3039 11.1789 11.3414 11.1414C11.3789 11.1039 11.4 11.053 11.4 11V0.2C11.4 0.146957 11.3789 0.0960859 11.3414 0.0585786C11.3039 0.0210714 11.253 0 11.2 0L9.2 0C9.14696 0 9.09609 0.0210714 9.05858 0.0585786C9.02107 0.0960859 9 0.146957 9 0.2V11C9 11.053 9.02107 11.1039 9.05858 11.1414C9.09609 11.1789 9.14696 11.2 9.2 11.2ZM9.4 0.4H11V10.8H9.4V0.4Z" fill="black"/>
</g>
<defs>
<clipPath id="clip0_3_9426">
<rect width="12" height="12" fill="white"/>
</clipPath>
</defs>
</svg>
