<svg width="11" height="11" viewBox="0 0 11 11" fill="none" xmlns="http://www.w3.org/2000/svg">
<path d="M6.3461 7.91312L4.85083 9.40803C4.41669 9.83046 3.83366 10.065 3.22787 10.061C2.62208 10.0569 2.04224 9.81455 1.61381 9.38634C1.18538 8.95814 0.94281 8.37851 0.93858 7.77287C0.93435 7.16723 1.1688 6.58427 1.59121 6.15012L3.08648 4.65384C3.17243 4.56785 3.22069 4.45124 3.22065 4.32967C3.22061 4.20811 3.17226 4.09154 3.08625 4.0056C3.00024 3.91967 2.8836 3.87142 2.76201 3.87146C2.64041 3.87151 2.52381 3.91984 2.43786 4.00583L0.943043 5.50212C0.339008 6.10631 -0.000214817 6.92565 1.02061e-07 7.77989C0.000215021 8.63413 0.33985 9.4533 0.944189 10.0572C1.54853 10.6611 2.36807 11.0002 3.22252 11C4.07696 10.9998 4.89633 10.6602 5.50037 10.056L6.99564 8.56113C7.07914 8.4747 7.12534 8.35894 7.1243 8.23878C7.12325 8.11862 7.07504 8.00368 6.99005 7.91871C6.90506 7.83374 6.79009 7.78554 6.66991 7.7845C6.54972 7.78345 6.43393 7.82965 6.34747 7.91312H6.3461Z" fill="#5D6975"/>
<path d="M10.0586 0.944526C9.76033 0.644267 9.40541 0.406175 9.01442 0.244043C8.62343 0.081912 8.20415 -0.00103409 7.78086 1.12924e-05C7.3578 -0.00111228 6.93871 0.0816209 6.54782 0.243427C6.15694 0.405233 5.80202 0.642902 5.50358 0.942692L4.00601 2.43806C3.92 2.52399 3.87165 2.64056 3.87161 2.76213C3.87157 2.8837 3.91983 3.0003 4.00578 3.0863C4.09173 3.17229 4.20833 3.22062 4.32993 3.22066C4.45153 3.22071 4.56816 3.17246 4.65418 3.08652L6.15082 1.59162C6.36423 1.37698 6.6181 1.2068 6.89774 1.09093C7.17738 0.975054 7.47724 0.915792 7.77995 0.91657C8.23571 0.916721 8.68119 1.05196 9.06009 1.30519C9.43898 1.55842 9.73427 1.91828 9.90864 2.33926C10.083 2.76025 10.1286 3.22347 10.0397 3.67036C9.95076 4.11726 9.73131 4.52776 9.40907 4.84998L7.9138 6.34489C7.82778 6.43088 7.77946 6.54751 7.77946 6.66912C7.77946 6.79074 7.82778 6.90737 7.9138 6.99336C7.99981 7.07935 8.11647 7.12766 8.23811 7.12766C8.35975 7.12766 8.47641 7.07935 8.56242 6.99336L10.0577 5.49937C10.661 4.89494 10.9998 4.076 11 3.22214C11.0002 2.36827 10.6616 1.5492 10.0586 0.944526Z" fill="#5D6975"/>
<path d="M6.55146 3.80052L3.80111 6.5502C3.75733 6.59248 3.72241 6.64304 3.69838 6.69896C3.67436 6.75487 3.66172 6.815 3.66119 6.87585C3.66066 6.9367 3.67226 6.99705 3.6953 7.05337C3.71835 7.10969 3.75239 7.16086 3.79543 7.20389C3.83847 7.24692 3.88965 7.28095 3.94598 7.30399C4.00232 7.32703 4.06268 7.33863 4.12354 7.3381C4.18441 7.33757 4.24456 7.32493 4.30048 7.30091C4.35641 7.27689 4.40699 7.24198 4.44928 7.19821L7.19962 4.44853C7.28312 4.3621 7.32932 4.24634 7.32828 4.12618C7.32724 4.00602 7.27903 3.89108 7.19404 3.80611C7.10905 3.72114 6.99408 3.67294 6.87389 3.6719C6.7537 3.67085 6.63791 3.71704 6.55146 3.80052Z" fill="#5D6975"/>
</svg>
