<svg width="10" height="13" viewBox="0 0 10 13" fill="none" xmlns="http://www.w3.org/2000/svg">
<path d="M5 6.5C5.65927 6.5 6.30374 6.30939 6.8519 5.95228C7.40006 5.59516 7.82731 5.08758 8.0796 4.49372C8.33189 3.89986 8.3979 3.2464 8.26928 2.61596C8.14067 1.98552 7.8232 1.40642 7.35702 0.951904C6.89085 0.497384 6.2969 0.187851 5.6503 0.0624493C5.0037 -0.0629527 4.33348 0.00140819 3.72439 0.247393C3.1153 0.493378 2.59471 0.909938 2.22843 1.4444C1.86216 1.97886 1.66667 2.60721 1.66667 3.25C1.66755 4.11169 2.01902 4.93784 2.64395 5.54715C3.26888 6.15645 4.11622 6.49914 5 6.5ZM5 1.08333C5.43951 1.08333 5.86916 1.21041 6.2346 1.44848C6.60004 1.68656 6.88487 2.02495 7.05307 2.42085C7.22126 2.81676 7.26527 3.2524 7.17952 3.6727C7.09378 4.09299 6.88213 4.47905 6.57135 4.78207C6.26057 5.08508 5.8646 5.29143 5.43353 5.37504C5.00247 5.45864 4.55565 5.41573 4.14959 5.25174C3.74353 5.08775 3.39647 4.81004 3.15229 4.45374C2.90811 4.09743 2.77778 3.67853 2.77778 3.25C2.77778 2.67537 3.0119 2.12427 3.42865 1.71794C3.8454 1.31161 4.41063 1.08333 5 1.08333Z" fill="#4269F2"/>
<path d="M5 7.58333C3.67437 7.58477 2.40345 8.09884 1.46609 9.01277C0.528727 9.9267 0.00147047 11.1658 0 12.4583C0 12.602 0.0585315 12.7398 0.162718 12.8413C0.266905 12.9429 0.408213 13 0.555556 13C0.702898 13 0.844206 12.9429 0.948393 12.8413C1.05258 12.7398 1.11111 12.602 1.11111 12.4583C1.11111 11.4527 1.52083 10.4883 2.25014 9.77722C2.97945 9.06614 3.9686 8.66667 5 8.66667C6.0314 8.66667 7.02055 9.06614 7.74986 9.77722C8.47917 10.4883 8.88889 11.4527 8.88889 12.4583C8.88889 12.602 8.94742 12.7398 9.05161 12.8413C9.15579 12.9429 9.2971 13 9.44444 13C9.59179 13 9.7331 12.9429 9.83728 12.8413C9.94147 12.7398 10 12.602 10 12.4583C9.99853 11.1658 9.47127 9.9267 8.53391 9.01277C7.59655 8.09884 6.32563 7.58477 5 7.58333Z" fill="#4269F2"/>
</svg>
