<svg width="24" height="24" viewBox="0 0 24 24" fill="none" xmlns="http://www.w3.org/2000/svg">
<path fill-rule="evenodd" clip-rule="evenodd" d="M11.208 0.133004C11.1156 0.156378 10.924 0.234319 10.7821 0.306148C10.2879 0.556334 6.53324 2.65752 6.45536 2.72751C6.26804 2.89575 6.42124 3.27849 6.67586 3.27849C6.74858 3.27849 7.67082 2.79291 9.02697 2.0406C11.4328 0.70597 11.4892 0.681697 11.8691 0.81623C11.9677 0.851155 13.6322 1.76065 15.5679 2.83732C17.5037 3.91403 19.6117 5.0858 20.2524 5.44135L21.4174 6.08781L16.4975 6.09923C13.7916 6.10552 9.36609 6.10552 6.66308 6.09923L1.74843 6.08781L3.63524 5.03793C4.67297 4.46052 5.54626 3.95884 5.57585 3.92306C5.72896 3.73805 5.55894 3.39734 5.3146 3.39945C5.1822 3.40062 0.388875 6.03684 0.200975 6.21182C0.105209 6.301 0.100098 6.33916 0.100098 6.964C0.100098 7.78009 0.15345 7.9878 0.447115 8.31526C0.694959 8.59165 0.998667 8.74785 1.37016 8.78996L1.63141 8.81963L2.20946 9.63375L2.78751 10.4479L2.78886 14.5923L2.79016 18.7369L2.19677 19.5705L1.60339 20.4041H1.16415C0.676219 20.4041 0.503875 20.4555 0.31593 20.657C0.126684 20.8599 0.100098 20.9925 0.100098 21.7344C0.100098 22.6341 0.173267 22.8334 0.570858 23.0165C0.743291 23.0958 1.16671 23.0991 11.5679 23.1C21.2029 23.1009 22.4037 23.0935 22.5507 23.0319C22.7776 22.9368 22.8684 22.8455 22.9931 22.5869C23.0921 22.3817 23.1001 22.3116 23.1001 21.6516C23.1001 21.1874 23.0844 20.9479 23.0553 20.9659C23.0306 20.9812 23.0104 20.9629 23.0104 20.9252C23.0104 20.8208 22.7386 20.5332 22.5754 20.4648C22.4872 20.4278 22.2587 20.4041 21.9912 20.4041H21.552L20.9586 19.5705L20.3652 18.7369L20.3665 14.5923L20.3678 10.4479L20.9451 9.63492L21.5223 8.82192L21.8179 8.77284C21.9805 8.74582 22.2069 8.67701 22.3208 8.61992C22.587 8.48669 22.9048 8.13209 22.9726 7.89274C23.0017 7.79003 23.0423 7.68674 23.0628 7.66327C23.0833 7.63981 23.0985 7.30606 23.0966 6.92161C23.0946 6.53721 23.0824 6.24936 23.0693 6.28199C23.0521 6.32532 23.0283 6.31637 22.9812 6.24895C22.9024 6.13622 23.2188 6.31723 19.1995 4.08564C17.3624 3.06566 15.1134 1.81635 14.2017 1.30941C13.2901 0.802475 12.4194 0.329162 12.2669 0.257603C11.9593 0.113317 11.4995 0.059198 11.208 0.133004ZM11.2638 2.1723C10.9244 2.24799 10.6876 2.38091 10.4692 2.61846C10.1741 2.93949 10.0849 3.15367 10.0634 3.59314C10.0379 4.1141 10.1501 4.41651 10.4981 4.76541C10.9342 5.20267 11.559 5.33478 12.1473 5.11408C12.5051 4.9799 12.8721 4.60966 13.0094 4.24458C13.1436 3.88755 13.1263 3.31387 12.9724 3.01559C12.8302 2.73996 12.5361 2.43458 12.295 2.31209C12.1269 2.22669 11.637 2.09858 11.5358 2.11359C11.5219 2.11566 11.3995 2.14209 11.2638 2.1723ZM11.3144 2.84995C10.9387 2.97019 10.7258 3.27171 10.7258 3.68384C10.7258 4.18413 11.0784 4.53707 11.5781 4.53707C12.1139 4.53707 12.456 4.16066 12.4211 3.60977C12.4064 3.3781 12.3785 3.29589 12.2677 3.15655C12.0308 2.85862 11.66 2.73937 11.3144 2.84995ZM0.118256 6.98679C0.1183 7.38234 0.12516 7.53813 0.133499 7.33303C0.141794 7.12788 0.141749 6.80425 0.133365 6.61385C0.124981 6.4234 0.118211 6.59124 0.118256 6.98679ZM0.779606 7.23086C0.79624 7.71204 0.841254 7.8214 1.10371 8.01783L1.22755 8.11051H11.5777H21.9278L22.0516 8.01783C22.3141 7.8214 22.3591 7.71204 22.3758 7.23086L22.3911 6.78452H11.5777H0.764228L0.779606 7.23086ZM2.47632 8.83195C2.47632 8.84557 2.66247 9.11863 2.88996 9.43876L3.3036 10.0208H4.47785H5.65206L6.07978 9.41404L6.5075 8.80723H4.49189C3.38331 8.80723 2.47632 8.81837 2.47632 8.83195ZM6.7427 9.63887L6.15273 10.4705L6.15309 14.5945L6.15345 18.7185L6.74714 19.5599L7.34084 20.4013H11.5777H15.8145L16.4082 19.5599L17.0019 18.7185L17.0023 17.3568L17.0026 15.995L17.1127 15.8847C17.2347 15.7623 17.3046 15.7504 17.4664 15.8242C17.6599 15.9126 17.6751 16.021 17.6751 17.3047V18.5162H18.6839H19.6927V14.6057V10.6951H18.6853H17.6778L17.6653 12.6993L17.6527 14.7036L17.5469 14.7894C17.4035 14.9058 17.2191 14.8983 17.1001 14.7713C17.0029 14.6675 17.0026 14.6615 17.0026 12.5689V10.4705L16.4127 9.63887L15.8227 8.80723H11.5777H7.33268L6.7427 9.63887ZM17.0756 9.41404L17.5033 10.0208H18.6775H19.8518L20.2654 9.43876C20.4929 9.11863 20.679 8.84557 20.679 8.83195C20.679 8.81837 19.772 8.80723 18.6635 8.80723H16.6479L17.0756 9.41404ZM3.46267 14.6057V18.5162H4.47144H5.48021V14.6057V10.6951H4.47144H3.46267V14.6057ZM10.7931 10.8145C9.87972 11.0097 8.99043 11.59 8.46174 12.3357C7.08058 14.2838 7.73668 16.9747 9.85156 18.036C11.6696 18.9483 13.8554 18.3018 14.8947 16.5444C16.2321 14.2828 14.9172 11.3427 12.3305 10.8111C11.9047 10.7235 11.2112 10.7251 10.7931 10.8145ZM10.8379 11.4986C9.47298 11.8369 8.50097 12.9984 8.40906 14.401C8.32701 15.6533 9.04037 16.888 10.1652 17.4405C10.6667 17.6868 11.0154 17.7676 11.5777 17.7676C12.1404 17.7676 12.4893 17.6867 12.99 17.4401C14.1183 16.8845 14.8285 15.6555 14.7463 14.401C14.6349 12.7014 13.2427 11.4033 11.5464 11.4176C11.3293 11.4194 11.0105 11.4559 10.8379 11.4986ZM2.8666 19.7853L2.44404 20.3816L3.44348 20.3937C3.99315 20.4003 4.90862 20.4003 5.47788 20.3937L6.51293 20.3816L6.09494 19.7973L5.67699 19.2129L4.48306 19.201L3.28912 19.189L2.8666 19.7853ZM17.3916 19.3365C17.3318 19.4169 17.1386 19.6849 16.9623 19.9321L16.6418 20.3816L17.6486 20.3937C18.2023 20.4003 19.1181 20.4003 19.6837 20.3937L20.7121 20.3816L20.2876 19.786L19.8631 19.1905H18.6817H17.5004L17.3916 19.3365ZM0.118435 21.7301C0.11839 22.1503 0.125115 22.3283 0.13341 22.1256C0.141704 21.9229 0.141749 21.579 0.133499 21.3614C0.125295 21.1439 0.11848 21.3098 0.118435 21.7301ZM0.792295 21.1367C0.779965 21.1689 0.775527 21.4673 0.782476 21.7997L0.795029 22.4043H11.5777H22.3603V21.7525V21.1008L11.5875 21.0895C2.77101 21.0802 0.810632 21.0887 0.792295 21.1367Z" fill="#4269F2" stroke="#436AF5" stroke-width="0.2"/>
<path d="M13.1001 13.2817L12.9505 13.8481H10.1001L10.2497 13.2817H13.1001ZM11.7629 17.1001L10.1529 14.9126L10.1441 14.5024H10.9447C11.1529 14.5024 11.3303 14.4699 11.4769 14.4048C11.6236 14.3381 11.7357 14.2388 11.8134 14.1069C11.8912 13.9735 11.93 13.8058 11.93 13.604C11.93 13.3062 11.8494 13.0726 11.6881 12.9033C11.5268 12.7324 11.279 12.647 10.9447 12.647H10.1001L10.2497 12.1001H10.9447C11.3024 12.1001 11.5957 12.166 11.8244 12.2979C12.0546 12.4281 12.2247 12.6071 12.3347 12.835C12.4461 13.0612 12.5019 13.3175 12.5019 13.604C12.5019 13.8628 12.4505 14.1012 12.3479 14.3193C12.2467 14.5358 12.084 14.71 11.8596 14.8418C11.6368 14.9736 11.342 15.0396 10.9755 15.0396H10.9623L12.4491 17.061V17.1001H11.7629ZM13.1001 12.1001L12.9505 12.6665L10.7071 12.647L10.8567 12.1001H13.1001Z" fill="#4269F4"/>
</svg>
