<svg width="20" height="13" viewBox="0 0 20 13" fill="none" xmlns="http://www.w3.org/2000/svg">
<path d="M0.00328614 4.86605C0.00328614 4.37944 0.327689 4.05504 0.814294 4.05504H16.71L14.0337 1.37871C13.7093 1.05431 13.7093 0.567705 14.0337 0.243302C14.3581 -0.0811008 14.8447 -0.0811008 15.1691 0.243302L19.2242 4.29834C19.4675 4.54164 19.5486 4.86605 19.3864 5.19045C19.3053 5.51485 18.9809 5.67705 18.6565 5.67705H0.814294C0.327689 5.67705 0.00328614 5.35265 0.00328614 4.86605ZM18.6565 7.29907H0.814294C0.489891 7.29907 0.165488 7.46127 0.0843868 7.78567C-0.0778147 8.11008 0.00328609 8.43448 0.246588 8.67778L4.30163 12.7328C4.62603 13.0572 5.11263 13.0572 5.43704 12.7328C5.76144 12.4084 5.76144 11.9218 5.43704 11.5974L2.76071 8.92109H18.6565C19.1431 8.92109 19.4675 8.59668 19.4675 8.11008C19.4675 7.62347 19.1431 7.29907 18.6565 7.29907Z" fill="white"/>
</svg>
