<svg width="160" height="162" viewBox="0 0 160 162" fill="none" xmlns="http://www.w3.org/2000/svg">
<g style="mix-blend-mode:luminosity" opacity="0.4">
<path d="M158.415 90.7022L136.679 54.7654L116.476 91.4725L138.211 127.415L158.415 90.7022Z" fill="#FFC94F" stroke="#545F98" stroke-width="0.133333"/>
<path d="M82.1665 164.943C92.0796 181.332 104.774 189.377 117.285 189.172L117.285 189.171L117.294 189.172L117.326 189.177C117.338 189.176 117.349 189.175 117.36 189.175L117.361 189.175L138.032 188.747L138.029 188.745L138.28 188.74C150.831 188.542 163.224 180.03 172.464 163.242C181.689 146.48 186.02 124.647 185.561 102.898C185.101 81.1492 179.852 59.4908 169.923 43.0781C160.013 26.691 147.313 18.6499 134.799 18.8509L134.684 18.8534L134.687 18.8482L113.806 19.2808L113.218 19.296C100.871 19.7565 88.7179 28.253 79.6251 44.7812C70.395 61.5482 66.0648 83.3817 66.5259 105.129C66.9871 126.877 72.2391 148.532 82.1665 164.943Z" fill="#6282F3" stroke="#545F98" stroke-width="0.133333"/>
<path d="M169.98 43.0431C160.063 26.644 147.344 18.5829 134.798 18.7846L134.802 18.7777L134.753 18.7821C134.747 18.7788 134.74 18.784 134.734 18.7806L113.805 19.214C101.224 19.4232 88.8108 27.9464 79.5669 44.7494C61.0926 78.3088 62.2401 132.13 82.1099 164.978C92.0302 181.378 104.743 189.444 117.286 189.238L117.323 189.243C117.335 189.242 117.347 189.241 117.363 189.241L138.284 188.809L138.281 188.807C150.865 188.609 163.276 180.074 172.522 163.274C190.987 129.725 189.853 75.8933 169.98 43.0431Z" stroke="#545F98" stroke-width="2" stroke-miterlimit="10" stroke-linecap="round" stroke-linejoin="round"/>
<path d="M127.783 189.023C140.364 188.822 152.778 180.29 162.024 163.49C177.353 135.638 179.172 93.8248 167.991 61.6362M153.382 34.6136C155.507 37.1765 157.549 40.0581 159.478 43.2594C160.442 44.8413 161.359 46.4788 162.235 48.1613" stroke="#545F98" stroke-width="2" stroke-miterlimit="10" stroke-linecap="round" stroke-linejoin="round"/>
<path d="M151.524 163.696C133.058 197.263 101.981 197.828 82.1098 164.977C62.24 132.129 61.0925 78.3088 79.5668 44.7493C98.0342 11.1951 129.115 10.6221 148.982 43.4742C168.854 76.3242 169.99 130.143 151.524 163.696Z" stroke="#545F98" stroke-width="2" stroke-miterlimit="10" stroke-linecap="round" stroke-linejoin="round"/>
<path d="M142.666 149.052C128.746 174.344 105.325 174.774 90.3406 150.023C75.3683 125.262 74.5145 84.689 88.4278 59.4028C102.352 34.1093 125.769 33.6788 140.747 58.4367C155.725 83.1994 156.584 123.763 142.666 149.052Z" stroke="#545F98" stroke-width="2" stroke-miterlimit="10" stroke-linecap="round" stroke-linejoin="round"/>
<path d="M133.806 134.397C124.432 151.43 108.666 151.719 98.5752 135.054C88.5 118.381 87.9202 91.0781 97.2944 74.0457C106.662 57.0323 122.427 56.7322 132.511 73.4026C142.594 90.0729 143.171 117.383 133.806 134.397Z" stroke="#545F98" stroke-width="2" stroke-miterlimit="10" stroke-linecap="round" stroke-linejoin="round"/>
<path d="M106.873 120.054C109.461 124.33 112.767 126.415 116.014 126.355C119.261 126.294 122.476 124.088 124.88 119.723C127.285 115.354 128.414 109.664 128.294 103.994C128.174 98.3238 126.803 92.6801 124.216 88.4035C121.629 84.129 118.324 82.0429 115.077 82.1018C111.83 82.1607 108.614 84.365 106.21 88.7298C103.806 93.0985 102.677 98.7906 102.797 104.462C102.917 110.134 104.287 115.779 106.873 120.054Z" fill="white" stroke="#545F98" stroke-width="0.133333"/>
<path d="M113.873 119.911C116.461 124.187 119.768 126.272 123.016 126.212C126.263 126.151 129.479 123.945 131.881 119.58C134.284 115.21 135.414 109.52 135.294 103.851C135.173 98.1812 133.803 92.5382 131.215 88.2632C128.629 83.9869 125.322 81.9004 122.075 81.9589C118.829 82.0175 115.614 84.2209 113.211 88.5861C110.807 92.9549 109.677 98.6472 109.797 104.319C109.917 109.991 111.287 115.636 113.873 119.911Z" fill="#97AEFC" stroke="#545F98" stroke-width="0.133333"/>
<path d="M124.939 119.755C120.117 128.509 112.005 128.665 106.816 120.089C101.629 111.514 101.329 97.4604 106.152 88.6976C110.974 79.9433 119.085 79.7956 124.274 88.3687C129.463 96.9467 129.762 110.992 124.939 119.755Z" stroke="#545F98" stroke-width="2" stroke-miterlimit="10" stroke-linecap="round" stroke-linejoin="round"/>
<path d="M43.3918 104.892L114.182 103.478" stroke="#545F98" stroke-width="2" stroke-miterlimit="10" stroke-linecap="round" stroke-linejoin="round"/>
<path d="M15.0299 101.886L25.7511 105.29L44.412 104.908L15.0299 101.886Z" fill="#FFC94F" stroke="#545F98" stroke-width="2" stroke-miterlimit="10" stroke-linecap="round" stroke-linejoin="round"/>
<path d="M35.771 114.617L44.2616 104.979L25.815 105.355L25.3041 118.664L35.771 114.617Z" fill="#FFC94F" stroke="#545F98" stroke-width="0.133333"/>
<path d="M44.4123 104.908L35.8115 114.673L25.2344 118.762L25.7515 105.29L44.4123 104.908Z" stroke="#545F98" stroke-width="2" stroke-miterlimit="10" stroke-linecap="round" stroke-linejoin="round"/>
<path d="M44.2506 104.845L35.3838 96.1896L28.397 95.4765L25.838 105.222L44.2506 104.845Z" fill="#FFC94F" stroke="#545F98" stroke-width="0.133333"/>
<path d="M25.7511 105.29L28.3478 95.4038L35.415 96.1254L44.412 104.909L25.7511 105.29Z" stroke="#545F98" stroke-width="2" stroke-miterlimit="10" stroke-linecap="round" stroke-linejoin="round"/>
</g>
</svg>
