<svg width="11" height="12" viewBox="0 0 11 12" fill="none" xmlns="http://www.w3.org/2000/svg">
<path d="M11 12L5.5 6.5265L0 12V1.5C0 1.10218 0.158035 0.720644 0.43934 0.43934C0.720644 0.158035 1.10218 0 1.5 0H9.5C9.89783 0 10.2794 0.158035 10.5607 0.43934C10.842 0.720644 11 1.10218 11 1.5V12ZM5.5 5.116L10 9.5925V1.5C10 1.36739 9.94732 1.24021 9.85355 1.14645C9.75979 1.05268 9.63261 1 9.5 1H1.5C1.36739 1 1.24021 1.05268 1.14645 1.14645C1.05268 1.24021 1 1.36739 1 1.5V9.5925L5.5 5.116Z" fill="#5D6975"/>
</svg>
